<svg width="512" height="512" viewBox="0 0 512 512" fill="none" xmlns="http://www.w3.org/2000/svg">
<path d="M204.5 459.605V511.461L191.961 501.332C190.023 499.766 143.926 462.34 97.1797 408.672C32.6953 334.637 0 268.18 0 211.152V205.5C0 92.7383 91.7383 1 204.5 1C317.262 1 409 92.7383 409 205.5V211.152C409 215.941 408.746 220.805 408.285 225.727L368.293 189.242C360.102 106.086 289.773 40.9023 204.5 40.9023C113.742 40.9023 39.9023 114.742 39.9023 205.5V211.152C39.9023 307.52 164.066 424.18 204.5 459.605V459.605ZM327.199 430.945H387.051V371.094H327.199V430.945ZM204.5 120.707C251.254 120.707 289.293 158.746 289.293 205.5C289.293 252.254 251.254 290.293 204.5 290.293C157.746 290.293 119.707 252.254 119.707 205.5C119.707 158.746 157.746 120.707 204.5 120.707ZM204.5 160.609C179.746 160.609 159.609 180.746 159.609 205.5C159.609 230.25 179.746 250.391 204.5 250.391C229.25 250.391 249.391 230.25 249.391 205.5C249.391 180.746 229.25 160.609 204.5 160.609ZM485.109 403.832L473.891 393.598V457.656C473.891 487.484 449.621 511.75 419.793 511.75H293.461C263.633 511.75 239.363 487.484 239.363 457.656V393.598L228.145 403.832L201.254 374.355L356.625 232.609L512 374.355L485.109 403.832ZM433.988 357.195L356.625 286.621L279.266 357.195V457.652C279.266 465.48 285.633 471.848 293.461 471.848H419.793C427.621 471.848 433.988 465.48 433.988 457.652V357.195Z" fill="#00C4CC"/>
</svg>
