<svg width="24" height="24" viewBox="0 0 24 24" fill="none" xmlns="http://www.w3.org/2000/svg">
<path d="M9.58594 21.544V23.9747L8.99817 23.4999C8.90735 23.4265 6.74652 21.6722 4.5553 19.1565C1.53259 15.6861 0 12.5709 0 9.89777V9.63281C0 4.34711 4.30023 0.046875 9.58594 0.046875C14.8716 0.046875 19.1719 4.34711 19.1719 9.63281V9.89777C19.1719 10.1223 19.16 10.3502 19.1384 10.5809L17.2637 8.87073C16.8798 4.97278 13.5831 1.9173 9.58594 1.9173C5.33167 1.9173 1.87042 5.37854 1.87042 9.63281V9.89777C1.87042 14.415 7.69061 19.8834 9.58594 21.544V21.544ZM15.3375 20.2006H18.143V17.395H15.3375V20.2006ZM9.58594 5.65814C11.7775 5.65814 13.5606 7.44122 13.5606 9.63281C13.5606 11.8244 11.7775 13.6075 9.58594 13.6075C7.39435 13.6075 5.61127 11.8244 5.61127 9.63281C5.61127 7.44122 7.39435 5.65814 9.58594 5.65814ZM9.58594 7.52856C8.4256 7.52856 7.48169 8.47247 7.48169 9.63281C7.48169 10.793 8.4256 11.7371 9.58594 11.7371C10.7461 11.7371 11.6902 10.793 11.6902 9.63281C11.6902 8.47247 10.7461 7.52856 9.58594 7.52856ZM22.7395 18.9296L22.2136 18.4499V21.4526C22.2136 22.8508 21.076 23.9883 19.6778 23.9883H13.756C12.3578 23.9883 11.2202 22.8508 11.2202 21.4526V18.4499L10.6943 18.9296L9.43378 17.5479L16.7168 10.9036L24 17.5479L22.7395 18.9296ZM20.3432 16.7435L16.7168 13.4354L13.0906 16.7435V21.4525C13.0906 21.8194 13.389 22.1179 13.756 22.1179H19.6778C20.0447 22.1179 20.3432 21.8194 20.3432 21.4525V16.7435Z" fill="#00C4CC"/>
</svg>
