<svg width="30" height="30" viewBox="0 0 30 30" fill="none" xmlns="http://www.w3.org/2000/svg">
<g clip-path="url(#clip0)">
<path d="M30 22.3576C30 24.0028 28.6935 25.3092 27.0968 25.3092H2.9032C1.30646 25.3092 0 24.0028 0 22.3576V7.64789C0 6.00275 1.30646 4.69629 2.9032 4.69629H27.0967C28.6935 4.69629 29.9999 6.00275 29.9999 7.64789V22.3576H30Z" fill="#009B3A"/>
<path d="M2.90332 4.69629H27.0969C28.6937 4.69629 30.0001 6.00275 30.0001 7.64789V22.3576C30.0001 24.0027 28.6936 25.3092 27.0969 25.3092" fill="#007C29"/>
<path d="M2.90332 4.69629H27.0969C28.6937 4.69629 30.0001 6.00275 30.0001 7.64789V13.0189" fill="#006D21"/>
<path d="M30 22.3564C30 24.0016 28.6935 25.308 27.0968 25.308H2.9032C1.30646 25.308 0 24.0016 0 22.3564" fill="#006D21"/>
<path d="M1.83984 15.0023L15.0011 23.4217L28.1624 15.0023L15.0011 6.58301L1.83984 15.0023Z" fill="#FEDF00"/>
<path d="M15.0016 23.4209L16.6467 22.3564H13.3564L15.0016 23.4209Z" fill="#FCC000"/>
<path d="M9.33984 10.212L20.6624 19.7927L28.1624 15.0023L15.0011 6.58301L9.33984 10.212Z" fill="#FCC000"/>
<path d="M14.9981 20.5627C18.0714 20.5627 20.5627 18.0714 20.5627 14.9981C20.5627 11.9249 18.0714 9.43359 14.9981 9.43359C11.9249 9.43359 9.43359 11.9249 9.43359 14.9981C9.43359 18.0714 11.9249 20.5627 14.9981 20.5627Z" fill="#002776"/>
<path d="M14.9997 9.43359C13.3062 9.43359 11.8062 10.2078 10.79 11.3691L19.2578 18.5787C20.0804 17.611 20.5642 16.353 20.5642 14.9981C20.5642 11.9497 18.0481 9.43359 14.9997 9.43359Z" fill="#021E47"/>
<path d="M9.9017 12.7714C9.77924 13.0511 9.67904 13.3428 9.60352 13.6443C10.3498 13.5133 11.1186 13.447 11.9044 13.4524C15.1383 13.4524 18.0837 14.6558 20.3202 16.6397C20.4063 16.3598 20.4707 16.0704 20.512 15.7736C18.1679 13.8119 15.1492 12.6299 11.8559 12.6299C11.1923 12.6298 10.5399 12.6788 9.9017 12.7714Z" fill="white"/>
</g>
<defs>
<clipPath id="clip0">
<rect width="30" height="30" fill="white"/>
</clipPath>
</defs>
</svg>
