<svg width="10" height="10" viewBox="0 0 10 10" fill="none" xmlns="http://www.w3.org/2000/svg">
<g clip-path="url(#clip0)">
<path d="M10 7.45254C10 8.00092 9.56451 8.43641 9.03227 8.43641H0.967734C0.435488 8.43641 0 8.00092 0 7.45254V2.5493C0 2.00092 0.435488 1.56543 0.967734 1.56543H9.03225C9.56451 1.56543 9.99998 2.00092 9.99998 2.5493V7.45254H10Z" fill="#009B3A"/>
<path d="M0.967773 1.56543H9.03228C9.56455 1.56543 10 2.00092 10 2.5493V7.45252C10 8.0009 9.56453 8.43639 9.03228 8.43639" fill="#007C29"/>
<path d="M0.967773 1.56543H9.03228C9.56455 1.56543 10 2.00092 10 2.5493V4.33963" fill="#006D21"/>
<path d="M10 7.45215C10 8.00053 9.56451 8.43602 9.03227 8.43602H0.967734C0.435488 8.43602 0 8.00053 0 7.45215" fill="#006D21"/>
<path d="M0.613281 5.00078L5.00037 7.80723L9.38746 5.00078L5.00037 2.19434L0.613281 5.00078Z" fill="#FEDF00"/>
<path d="M5.00053 7.80697L5.54891 7.45215H4.45215L5.00053 7.80697Z" fill="#FCC000"/>
<path d="M3.11328 3.404L6.88746 6.59756L9.38746 5.00078L5.00037 2.19434L3.11328 3.404Z" fill="#FCC000"/>
<path d="M4.99938 6.85423C6.02379 6.85423 6.85423 6.02379 6.85423 4.99938C6.85423 3.97498 6.02379 3.14453 4.99938 3.14453C3.97498 3.14453 3.14453 3.97498 3.14453 4.99938C3.14453 6.02379 3.97498 6.85423 4.99938 6.85423Z" fill="#002776"/>
<path d="M4.9999 3.14453C4.43539 3.14453 3.93539 3.4026 3.59668 3.78968L6.41926 6.19291C6.69346 5.87034 6.85475 5.45098 6.85475 4.99937C6.85475 3.98324 6.01604 3.14453 4.9999 3.14453Z" fill="#021E47"/>
<path d="M3.30057 4.25713C3.25975 4.35037 3.22635 4.4476 3.20117 4.54809C3.44992 4.50444 3.70621 4.48235 3.96812 4.48414C5.04609 4.48414 6.02791 4.88528 6.7734 5.54656C6.80211 5.45328 6.82357 5.35681 6.83732 5.25788C6.05596 4.60397 5.04973 4.20996 3.95197 4.20996C3.73076 4.20994 3.5133 4.22625 3.30057 4.25713Z" fill="white"/>
</g>
<defs>
<clipPath id="clip0">
<rect width="10" height="10" fill="white"/>
</clipPath>
</defs>
</svg>
