<?xml version="1.0" encoding="iso-8859-1"?>
<!-- Generator: Adobe Illustrator 21.0.0, SVG Export Plug-In . SVG Version: 6.00 Build 0)  -->
<svg version="1.1" id="Capa_1" xmlns="http://www.w3.org/2000/svg" xmlns:xlink="http://www.w3.org/1999/xlink" x="0px" y="0px"
	 viewBox="0 0 973.486 973.486" style="enable-background:new 0 0 973.486 973.486;" xml:space="preserve">
<g>
	<g id="call_center_operator-Man">
		
			<linearGradient id="SVGID_1_" gradientUnits="userSpaceOnUse" x1="486.743" y1="1001.9026" x2="486.743" y2="-60.5761" gradientTransform="matrix(1 0 0 -1 0 969.5505)">
			<stop  offset="0" style="stop-color:#FFF33B"/>
			<stop  offset="0.014" style="stop-color:#FEE72E"/>
			<stop  offset="0.042" style="stop-color:#FED51B"/>
			<stop  offset="0.07" style="stop-color:#FDCA10"/>
			<stop  offset="0.1" style="stop-color:#FDC70C"/>
			<stop  offset="0.4" style="stop-color:#F3903F"/>
			<stop  offset="0.8" style="stop-color:#ED683C"/>
			<stop  offset="1" style="stop-color:#E93E3A"/>
		</linearGradient>
		<path style="fill:url(#SVGID_1_);" d="M826.895,440.876c0.281-0.915,0.471-1.855,0.568-2.807V340.72
			C827.463,152.546,674.917,0,486.743,0s-340.72,152.546-340.72,340.72v97.349c0.097,0.952,0.287,1.892,0.568,2.807
			c-19.664,6.68-32.923,25.1-33.017,45.867v64.899c0,26.882,21.792,48.674,48.674,48.674h49.502
			c8.576,151.884,138.654,268.058,290.538,259.482c139.905-7.9,251.582-119.577,259.482-259.482h48.788
			c-7.099,141.609-105.408,262.172-242.69,297.627v-5.581c0-8.961-7.264-16.225-16.225-16.225H421.844
			c-8.961,0-16.225,7.264-16.225,16.225v64.899c0,8.961,7.264,16.225,16.225,16.225h129.798c8.961,0,16.225-7.264,16.225-16.225
			v-25.96c160.051-37.324,273.883-179.175,275.659-343.511c10.383-9.15,16.348-22.31,16.387-36.149v-64.899
			C859.819,465.976,846.559,447.556,826.895,440.876z M535.417,941.036h-97.349v-32.45h97.349V941.036z M486.743,129.798
			c-113.912,0.185-216.012,70.326-257.049,176.59C248.472,164.424,378.78,64.562,520.744,83.341
			c116.225,15.374,207.674,106.823,223.048,223.048C702.755,200.125,600.655,129.983,486.743,129.798z M243.371,405.619
			c0-134.41,108.961-243.371,243.371-243.371s243.371,108.961,243.371,243.371v48.674H243.371V405.619z M178.472,340.72
			c0-170.253,138.017-308.271,308.271-308.271S795.013,170.467,795.013,340.72v81.124h-32.45v-16.225
			c8.961,0,16.225-7.264,16.225-16.225V340.72c0-161.292-130.753-292.046-292.046-292.046S194.697,179.428,194.697,340.72v48.674
			c0,8.961,7.264,16.225,16.225,16.225v16.225h-32.45V340.72z M146.023,551.642v-64.899c0-8.961,7.264-16.225,16.225-16.225h48.674
			v97.349h-48.674C153.287,567.867,146.023,560.603,146.023,551.642z M486.743,827.463
			c-134.347-0.152-243.219-109.024-243.371-243.371v-97.349h486.743v97.349C729.962,718.439,621.09,827.311,486.743,827.463z
			 M762.564,470.518h48.674c8.961,0,16.225,7.264,16.225,16.225v64.899c0,8.961-7.264,16.225-16.225,16.225h-48.674V470.518z"/>
	</g>
</g>
<g>
</g>
<g>
</g>
<g>
</g>
<g>
</g>
<g>
</g>
<g>
</g>
<g>
</g>
<g>
</g>
<g>
</g>
<g>
</g>
<g>
</g>
<g>
</g>
<g>
</g>
<g>
</g>
<g>
</g>
</svg>
