<svg width="16" height="16" viewBox="0 0 16 16" fill="none" xmlns="http://www.w3.org/2000/svg">
<path d="M14.5119 0H1.39836C0.62827 0 0 0.828557 0 1.84616V14.1539C0 15.168 0.62547 16 1.39836 16H14.5119C15.2801 16 15.9103 15.1742 15.9103 14.1539V1.84616C15.9103 0.832 15.2848 0 14.5119 0ZM14.3188 1.23077L7.98477 9.59315L1.59597 1.23077H14.3188ZM0.932243 13.899V2.09514L5.4219 7.97165L0.932243 13.899ZM1.59143 14.7692L6.0839 8.83814L7.65805 10.8986C7.84032 11.1371 8.13434 11.1363 8.31578 10.8966L9.85069 8.87027L14.3188 14.7692H1.59143ZM14.978 13.8989L10.5099 8L14.978 2.101V13.8989Z" fill="white"/>
</svg>
