<svg width="62" height="80" viewBox="0 0 62 80" fill="none" xmlns="http://www.w3.org/2000/svg">
<path d="M58.9529 36.2307C58.976 36.1555 58.9916 36.0783 58.9996 36V28C58.9996 12.5361 46.4636 0 30.9996 0C15.5357 0 2.99963 12.5361 2.99963 28V36C3.0076 36.0783 3.02322 36.1555 3.04631 36.2307C1.43034 36.7797 0.340733 38.2934 0.333008 40V45.3333C0.333008 47.5425 2.12385 49.3333 4.33298 49.3333H8.401C9.10577 61.815 19.7954 71.362 32.2771 70.6572C43.7743 70.008 52.9518 60.8305 53.601 49.3333H57.6104C57.027 60.9706 48.9481 70.8783 37.6664 73.792V73.3333C37.6664 72.5969 37.0694 72 36.333 72H25.6663C24.9299 72 24.3329 72.5969 24.3329 73.3333V78.6666C24.3329 79.4031 24.9299 80 25.6663 80H36.333C37.0694 80 37.6663 79.4031 37.6663 78.6666V76.5333C50.8191 73.466 60.1737 61.8089 60.3197 48.3039C61.1729 47.552 61.6631 46.4705 61.6663 45.3332V39.9999C61.6586 38.2934 60.5689 36.7797 58.9529 36.2307ZM34.9996 77.3333H26.9996V74.6666H34.9996V77.3333ZM30.9996 10.6667C21.6385 10.6819 13.248 16.446 9.87562 25.1786C11.4188 13.5122 22.1273 5.30563 33.7938 6.84887C43.345 8.11229 50.8602 15.6275 52.1236 25.1787C48.7513 16.4461 40.3608 10.6819 30.9996 10.6667ZM10.9996 33.3333C10.9996 22.2877 19.9539 13.3334 30.9995 13.3334C42.0452 13.3334 50.9995 22.2877 50.9995 33.3333V37.3333H10.9996V33.3333ZM5.66625 28C5.66625 14.0088 17.0083 2.66662 30.9996 2.66662C44.9909 2.66662 56.3329 14.0088 56.3329 28V34.6667H53.6662V33.3333C54.4026 33.3333 54.9996 32.7364 54.9996 32V28C54.9996 14.7452 44.2544 3.99998 30.9995 3.99998C17.7447 3.99998 6.99961 14.7452 6.99961 28V32C6.99961 32.7364 7.59655 33.3333 8.33296 33.3333V34.6667H5.66625V28V28ZM2.99963 45.3333V40C2.99963 39.2636 3.59658 38.6666 4.33298 38.6666H8.33296V46.6667H4.33298C3.59658 46.6667 2.99963 46.0697 2.99963 45.3333ZM30.9996 68C19.9591 67.9875 11.0122 59.0405 10.9997 48V40H50.9997V48C50.9871 59.0405 42.0401 67.9875 30.9996 68ZM53.6663 38.6666H57.6663C58.4027 38.6666 58.9996 39.2636 58.9996 40V45.3333C58.9996 46.0697 58.4027 46.6667 57.6663 46.6667H53.6663V38.6666Z" fill="#B41E3C"/>
</svg>
