<svg width="60" height="60" viewBox="0 0 60 60" fill="none" xmlns="http://www.w3.org/2000/svg">
<g clip-path="url(#clip0)">
<path d="M58.125 55C57.09 55 56.25 54.16 56.25 53.125V6.875C56.25 5.1525 54.8475 3.75 53.125 3.75H6.875C5.1525 3.75 3.75 5.1525 3.75 6.875V38.125C3.75 39.16 2.91 40 1.875 40C0.84 40 0 39.16 0 38.125V6.875C0 3.0825 3.0825 0 6.875 0H53.125C56.9175 0 60 3.0825 60 6.875V53.125C60 54.16 59.16 55 58.125 55Z" fill="#B41E3C"/>
<path d="M58.125 12.5H1.875C0.84 12.5 0 11.66 0 10.625C0 9.59 0.84 8.75 1.875 8.75H58.125C59.16 8.75 60 9.59 60 10.625C60 11.66 59.16 12.5 58.125 12.5Z" fill="#B41E3C"/>
<path d="M20.625 53.0748C19.59 53.0748 18.75 52.2348 18.75 51.1998V25.6248C18.75 22.5223 21.275 19.9998 24.375 19.9998C27.475 19.9998 30 22.5223 30 25.6248V40.6248C30 41.6598 29.16 42.4998 28.125 42.4998C27.09 42.4998 26.25 41.6598 26.25 40.6248V25.6248C26.25 24.5898 25.4075 23.7498 24.375 23.7498C23.3425 23.7498 22.5 24.5898 22.5 25.6248V51.1998C22.5 52.2348 21.66 53.0748 20.625 53.0748Z" fill="#B41E3C"/>
<path d="M28.125 48.7497C27.09 48.7497 26.25 47.9097 26.25 46.8747V40.6248C26.25 37.5223 28.775 34.9998 31.875 34.9998C34.975 34.9998 37.5 37.5223 37.5 40.6248V43.1247C37.5 44.1597 36.66 44.9997 35.625 44.9997C34.59 44.9997 33.75 44.1597 33.75 43.1247V40.6248C33.75 39.5898 32.9075 38.7498 31.875 38.7498C30.8425 38.7498 30 39.5898 30 40.6248V46.8747C30 47.9097 29.16 48.7497 28.125 48.7497Z" fill="#B41E3C"/>
<path d="M35.625 51.25C34.59 51.25 33.75 50.41 33.75 49.375V43.125C33.75 40.0225 36.275 37.5 39.375 37.5C42.475 37.5 45 40.0225 45 43.125V48.125C45 49.16 44.16 50 43.125 50C42.09 50 41.25 49.16 41.25 48.125V43.125C41.25 42.09 40.4075 41.25 39.375 41.25C38.3425 41.25 37.5 42.09 37.5 43.125V49.375C37.5 50.41 36.66 51.25 35.625 51.25Z" fill="#B41E3C"/>
<path d="M50.625 59.9997C49.59 59.9997 48.75 59.1597 48.75 58.1247V48.1247C48.75 47.0897 47.9075 46.2497 46.875 46.2497C45.8425 46.2497 45 47.0897 45 48.1247V51.8747C45 52.9097 44.16 53.7497 43.125 53.7497C42.09 53.7497 41.25 52.9097 41.25 51.8747V48.1247C41.25 45.0222 43.775 42.4998 46.875 42.4998C49.975 42.4998 52.5 45.0222 52.5 48.1247V58.1247C52.5 59.1597 51.66 59.9997 50.625 59.9997Z" fill="#B41E3C"/>
<path d="M13.4 60.0002C12.675 60.0002 11.985 59.5777 11.68 58.8677C9.9075 54.7552 8.31 53.2727 7.145 52.1902C6.09 51.2102 5 50.2002 5 48.1252C5 47.3952 5.3325 43.7502 11.875 43.7502C16.47 43.7502 19.9875 47.1927 22.1325 50.0827C22.75 50.9152 22.575 52.0877 21.7425 52.7052C20.915 53.3227 19.74 53.1452 19.12 52.3152C17.785 50.5177 15.07 47.5002 11.875 47.5002C9.2625 47.5002 8.7325 48.2202 8.73 48.2277C8.75 48.5052 8.75 48.5627 9.695 49.4402C11.025 50.6752 13.0375 52.5427 15.1225 57.3827C15.5325 58.3327 15.0925 59.4377 14.1425 59.8477C13.9025 59.9502 13.65 60.0002 13.4 60.0002V60.0002Z" fill="#B41E3C"/>
</g>
<defs>
<clipPath id="clip0">
<rect width="60" height="60" fill="white"/>
</clipPath>
</defs>
</svg>
