<svg width="80" height="80" viewBox="0 0 80 80" fill="none" xmlns="http://www.w3.org/2000/svg">
<circle cx="40" cy="40" r="40" fill="#B41E3C"/>
<path d="M50.002 53.5235L51.8633 56.0261C52.7649 55.3555 53.6163 54.6031 54.3937 53.7897L52.1391 51.6347C51.4824 52.3217 50.7634 52.9572 50.002 53.5235Z" fill="white"/>
<path d="M44.9404 56.0946L45.8611 59.0745C46.935 58.7427 47.9887 58.3159 48.9925 57.8058L47.5797 55.0253C46.7335 55.4552 45.8455 55.815 44.9404 56.0946Z" fill="white"/>
<path d="M53.9287 49.4144L56.5132 51.1601C57.1438 50.2266 57.6981 49.2338 58.1609 48.2095L55.3186 46.9255C54.9283 47.7893 54.4607 48.6266 53.9287 49.4144Z" fill="white"/>
<path d="M38.48 38.4405H29.7471V41.5594H41.599V25.9649H38.48V38.4405Z" fill="white"/>
<path d="M56.8811 23.6257V29.4015C55.4146 27.0608 53.4725 25.0432 51.1548 23.4708C47.8455 21.2257 43.9748 20.0389 39.961 20.0389C34.6292 20.0389 29.6166 22.1153 25.8464 25.8853C22.0763 29.6556 20 34.6682 20 40C20 45.3318 22.0763 50.3443 25.8464 54.1146C29.6166 57.8846 34.6292 59.961 39.961 59.961C40.8291 59.961 41.7028 59.9046 42.558 59.7934L42.1559 56.7005C41.4336 56.7944 40.6952 56.8421 39.9611 56.8421C30.6743 56.8421 23.119 49.2868 23.119 40C23.119 30.7132 30.6743 23.1578 39.9611 23.1578C45.989 23.1578 51.4591 26.3372 54.4614 31.4229H49.0838V34.5418H60V23.6257H56.8811Z" fill="white"/>
<path d="M56.7437 41.4034C56.7298 41.5698 56.7132 41.7353 56.6947 41.9003L56.6962 41.9004C56.6074 42.6896 56.4637 43.4741 56.2656 44.2383L59.2848 45.0206C59.5665 43.9338 59.7571 42.8131 59.8513 41.6898L59.8491 41.6896C59.8573 41.5943 59.8656 41.4991 59.8723 41.4034H56.7437V41.4034Z" fill="white"/>
</svg>
