<svg width="40" height="40" viewBox="0 0 40 40" fill="none" xmlns="http://www.w3.org/2000/svg">
<g clip-path="url(#clip0)">
<path d="M38.75 36.6667C38.06 36.6667 37.5 36.1067 37.5 35.4167V4.58333C37.5 3.435 36.565 2.5 35.4167 2.5H4.58333C3.435 2.5 2.5 3.435 2.5 4.58333V25.4167C2.5 26.1067 1.94 26.6667 1.25 26.6667C0.56 26.6667 0 26.1067 0 25.4167V4.58333C0 2.055 2.055 0 4.58333 0H35.4167C37.945 0 40 2.055 40 4.58333V35.4167C40 36.1067 39.44 36.6667 38.75 36.6667Z" fill="#B41E3C"/>
<path d="M38.75 8.33325H1.25C0.56 8.33325 0 7.77325 0 7.08325C0 6.39325 0.56 5.83325 1.25 5.83325H38.75C39.44 5.83325 40 6.39325 40 7.08325C40 7.77325 39.44 8.33325 38.75 8.33325Z" fill="#B41E3C"/>
<path d="M13.75 35.3833C13.06 35.3833 12.5 34.8233 12.5 34.1333V17.0833C12.5 15.0149 14.1833 13.3333 16.25 13.3333C18.3167 13.3333 20 15.0149 20 17.0833V27.0833C20 27.7733 19.44 28.3333 18.75 28.3333C18.06 28.3333 17.5 27.7733 17.5 27.0833V17.0833C17.5 16.3933 16.9383 15.8333 16.25 15.8333C15.5617 15.8333 15 16.3933 15 17.0833V34.1333C15 34.8233 14.44 35.3833 13.75 35.3833Z" fill="#B41E3C"/>
<path d="M18.75 32.4999C18.06 32.4999 17.5 31.9399 17.5 31.2499V27.0833C17.5 25.0149 19.1833 23.3333 21.25 23.3333C23.3167 23.3333 25 25.0149 25 27.0833V28.7499C25 29.4399 24.44 29.9999 23.75 29.9999C23.06 29.9999 22.5 29.4399 22.5 28.7499V27.0833C22.5 26.3933 21.9383 25.8333 21.25 25.8333C20.5617 25.8333 20 26.3933 20 27.0833V31.2499C20 31.9399 19.44 32.4999 18.75 32.4999Z" fill="#B41E3C"/>
<path d="M23.75 34.1667C23.06 34.1667 22.5 33.6067 22.5 32.9167V28.75C22.5 26.6817 24.1833 25 26.25 25C28.3167 25 30 26.6817 30 28.75V32.0833C30 32.7733 29.44 33.3333 28.75 33.3333C28.06 33.3333 27.5 32.7733 27.5 32.0833V28.75C27.5 28.06 26.9383 27.5 26.25 27.5C25.5617 27.5 25 28.06 25 28.75V32.9167C25 33.6067 24.44 34.1667 23.75 34.1667Z" fill="#B41E3C"/>
<path d="M33.75 39.9999C33.06 39.9999 32.5 39.4399 32.5 38.7499V32.0832C32.5 31.3932 31.9383 30.8332 31.25 30.8332C30.5617 30.8332 30 31.3932 30 32.0832V34.5832C30 35.2732 29.44 35.8332 28.75 35.8332C28.06 35.8332 27.5 35.2732 27.5 34.5832V32.0832C27.5 30.0149 29.1833 28.3333 31.25 28.3333C33.3167 28.3333 35 30.0149 35 32.0832V38.7499C35 39.4399 34.44 39.9999 33.75 39.9999Z" fill="#B41E3C"/>
<path d="M8.93301 40.0001C8.44968 40.0001 7.98967 39.7184 7.78634 39.2451C6.60467 36.5034 5.53967 35.5151 4.76301 34.7934C4.05967 34.1401 3.33301 33.4667 3.33301 32.0834C3.33301 31.5967 3.55467 29.1667 7.91634 29.1667C10.9797 29.1667 13.3247 31.4617 14.7547 33.3884C15.1663 33.9434 15.0497 34.7251 14.4947 35.1367C13.943 35.5484 13.1597 35.4301 12.7463 34.8767C11.8563 33.6784 10.0463 31.6667 7.91634 31.6667C6.17467 31.6667 5.82134 32.1467 5.81967 32.1517C5.83301 32.3367 5.83301 32.3751 6.46301 32.9601C7.34968 33.7834 8.69134 35.0284 10.0813 38.2551C10.3547 38.8884 10.0613 39.6251 9.42801 39.8984C9.26801 39.9667 9.09968 40.0001 8.93301 40.0001V40.0001Z" fill="#B41E3C"/>
</g>
<defs>
<clipPath id="clip0">
<rect width="40" height="40" fill="white"/>
</clipPath>
</defs>
</svg>
