<svg width="80" height="80" viewBox="0 0 80 80" fill="none" xmlns="http://www.w3.org/2000/svg">
<circle cx="40" cy="40" r="40" fill="#B41E3C"/>
<g clip-path="url(#clip0)">
<path d="M57.6185 43.8403C58.5354 41.7672 59 39.5593 59 37.2721C59 28.2997 51.7003 21 42.7279 21C34.8305 21 28.2301 26.6556 26.7615 34.1291C22.1585 36.4832 19 41.2745 19 46.7898C19 48.7711 19.3992 50.6841 20.1872 52.4821L19.0154 59.6387C18.9545 60.0111 19.0764 60.39 19.3432 60.6567C19.5648 60.8783 19.8636 61 20.1717 61C20.2347 61 20.2981 60.9949 20.3612 60.9846L27.5178 59.8127C29.3157 60.6008 31.2287 61 33.2102 61C38.7244 61 43.515 57.8427 45.8695 53.2412C47.0444 53.0113 48.1896 52.6522 49.2961 52.1628L57.6388 53.5289C57.702 53.5392 57.7652 53.5443 57.8282 53.5443C58.1363 53.5443 58.4353 53.4226 58.6567 53.201C58.9235 52.9342 59.0456 52.5553 58.9846 52.183L57.6185 43.8403ZM49.3237 49.7923C49.0904 49.7541 48.8506 49.7874 48.6365 49.888C46.7803 50.7589 44.7924 51.2005 42.7279 51.2005C35.0478 51.2005 28.7995 44.9523 28.7995 37.2722C28.7995 29.5921 35.0478 23.3438 42.7279 23.3438C50.4081 23.3438 56.6563 29.592 56.6563 37.2721C56.6563 39.3366 56.2147 41.3245 55.3437 43.1806C55.2432 43.3948 55.2099 43.6344 55.2481 43.8678L56.4081 50.9523L49.3237 49.7923ZM33.2102 58.6562C31.4512 58.6562 29.7577 58.2801 28.1764 57.538C28.0199 57.4646 27.8499 57.427 27.6786 57.427C27.6154 57.427 27.5521 57.4321 27.4892 57.4424L21.5919 58.408L22.5575 52.5107C22.5957 52.2773 22.5624 52.0377 22.4619 51.8236C21.7199 50.2423 21.3438 48.5487 21.3438 46.7898C21.3438 42.7533 23.3703 39.1816 26.4588 37.037C26.4577 37.1154 26.4558 37.1935 26.4558 37.2721C26.4558 46.2446 33.7555 53.5442 42.7279 53.5442C42.8064 53.5442 42.8846 53.5423 42.963 53.5413C40.8184 56.6298 37.2467 58.6562 33.2102 58.6562V58.6562Z" fill="white"/>
<path d="M46.5518 33.1529L41.1973 38.9054L38.8745 36.5827C38.417 36.1251 37.6749 36.1251 37.2173 36.5827C36.7596 37.0404 36.7596 37.7823 37.2173 38.24L40.3989 41.4215C40.6188 41.6415 40.917 41.7648 41.2275 41.7648C41.2344 41.7648 41.2415 41.7647 41.2485 41.7647C41.5666 41.759 41.8687 41.6243 42.0853 41.3914L48.2674 34.7498C48.7084 34.2761 48.6819 33.5345 48.208 33.0936C47.7344 32.6527 46.9928 32.6791 46.5518 33.1529Z" fill="white"/>
</g>
<defs>
<clipPath id="clip0">
<rect width="40" height="40" fill="white" transform="translate(19 21)"/>
</clipPath>
</defs>
</svg>
