<svg width="80" height="80" viewBox="0 0 80 80" fill="none" xmlns="http://www.w3.org/2000/svg">
<g clip-path="url(#clip0)">
<path d="M59.6028 61.2691H59.6011C52.0064 58.6354 52.1542 58.7364 51.3427 58.3347C51.3427 58.29 50.3822 57.9496 49.2148 56.8566L49.2164 56.8549C47.4218 55.1803 46.3486 52.8057 46.3503 50.2545C52.3192 47.7767 56.5201 41.8911 56.525 35.024V34.5025C58.8423 34.5025 60.6918 32.6107 60.6951 30.3399V14.5995C60.6984 7.27925 54.7729 1.33703 47.4526 1.33203H36.1772C31.0265 1.33203 26.3674 4.31147 24.1894 8.92727C23.9995 9.33386 23.6312 9.63714 23.188 9.70546C21.0284 10.0337 19.3687 11.8984 19.3687 14.1496V30.3899C19.367 32.5887 21.1367 34.4825 23.5312 34.4825V35.024C23.5346 41.8828 27.7255 47.7633 33.686 50.2462C33.686 53.6965 31.7164 56.8065 28.7003 58.308C27.9957 58.6636 28.3322 58.5206 20.4152 61.2441C20.4088 61.2441 20.346 61.2683 20.3402 61.2708C16.7492 62.5472 14.3403 65.9466 14.3386 69.7659V77.3011C14.337 78.0376 14.9312 78.6509 15.6677 78.6509H64.3253C65.0618 78.6509 65.6605 78.0711 65.6622 77.3346V69.7975C65.664 65.8144 63.054 62.4196 59.6028 61.2691V61.2691Z" fill="#FFEBD2"/>
<path d="M59.6028 61.2691H59.6011C52.0064 58.6354 52.1542 58.7364 51.3427 58.3346C51.3427 58.2907 50.3805 57.9479 49.2131 56.8549L42.4277 63.2154H37.5869L30.8099 56.8433C30.1883 57.4232 29.4801 57.9197 28.7003 58.308C27.9957 58.6636 28.3322 58.5206 20.4152 61.2441C20.4088 61.2441 20.346 61.2683 20.3402 61.2708C16.7492 62.5472 14.3403 65.9466 14.3386 69.7658V77.3011C14.3381 78.0374 14.9313 78.6505 15.6677 78.6508H64.3252C65.0614 78.6512 65.6617 78.0708 65.6622 77.3346V69.7975C65.664 65.8144 63.054 62.4196 59.6028 61.2691V61.2691Z" fill="#CBE3FA"/>
<path d="M47.4526 1.33203C54.7729 1.33703 60.6984 7.27925 60.6951 14.5995V30.3399C60.6934 32.6395 58.8263 34.5041 56.525 34.5025V24.2094C56.5284 19.7919 52.9524 16.2034 48.5349 16.2017H31.538C27.1205 16.2001 23.5345 19.7719 23.5312 24.1894V34.4825C21.1565 34.4825 19.367 32.6057 19.3687 30.3899V14.1496C19.3702 11.898 21.0315 10.0337 23.1911 9.70513C23.6345 9.63764 24.0015 9.33303 24.1927 8.92744C26.3697 4.31131 31.0288 1.33203 36.1807 1.33203H47.4526V1.33203Z" fill="#585966"/>
<path d="M33.0516 58.951C33.7468 59.6046 33.5492 60.7529 32.6782 61.1425C31.6394 61.6072 25.1553 63.7301 24.6725 63.9369C21.0815 65.2134 18.674 68.6127 18.6723 72.432V77.3028C18.672 78.0389 18.0734 78.6355 17.3372 78.6352L15.6677 78.6508C14.9312 78.6508 14.337 78.0376 14.3386 77.3011V69.7658C14.3403 65.9466 16.7492 62.5472 20.3402 61.2708C20.346 61.2683 20.4088 61.2441 20.4152 61.2441C28.372 58.5069 27.9992 58.6618 28.7003 58.308C29.4801 57.9197 30.1883 57.4232 30.8099 56.8433L33.0516 58.951Z" fill="#EEF7FF"/>
<path d="M42.4277 63.2153L45.5338 72.8585L40.0215 74.3182L34.4692 72.8468L37.5869 63.2153H42.4277Z" fill="#FF6D7A"/>
<path d="M40.3555 64.9582L37.9274 72.4586C37.7093 73.1325 37.0024 73.5181 36.3177 73.3366L34.4691 72.8469L37.5868 63.2153H39.0877C39.9927 63.2158 40.6341 64.0973 40.3555 64.9582V64.9582Z" fill="#FF8C95"/>
<path d="M48.2173 1.35919C50.7793 1.50667 50.6588 5.33811 48.0928 5.36178C46.423 5.37711 44.3938 5.35511 41.8545 5.32962C36.6185 5.27679 32.0037 8.37738 29.8582 12.9267C29.6669 13.3323 29.3 13.6371 28.8566 13.7044C26.6972 14.033 25.0416 15.8973 25.04 18.1489V19.5253C24.0935 20.8367 23.5319 22.4481 23.5311 24.1894C23.5258 35.2822 23.5514 34.4825 23.4944 34.4825C21.2115 34.4816 19.3669 32.6478 19.3685 30.3899V14.1496C19.37 11.8981 21.0314 10.0337 23.191 9.70513C23.6344 9.63764 24.0013 9.33303 24.1926 8.92744C26.3696 4.31131 31.0287 1.33203 36.1805 1.33203C36.1805 1.33187 47.9645 1.34453 48.2173 1.35919V1.35919Z" fill="#6E6F80"/>
<path d="M37.5521 46.3779C40.1787 47.7291 38.6369 51.7192 35.7822 50.9597C28.6552 49.0632 23.5315 42.5921 23.5277 35.0239C23.5277 35.0239 23.5362 23.9964 23.5397 23.9008C23.6559 20.7021 28.4635 20.8244 28.4771 24.0251C28.4853 25.9274 28.5269 28.3878 28.5268 31.6912C28.5264 38.3946 32.3815 43.7182 37.5521 46.3779Z" fill="#FFF3E4"/>
<path d="M45.6179 53.2077C42.0687 54.494 38.0213 54.5105 34.4118 53.199C33.8133 52.9816 33.4543 52.3635 33.5587 51.7353C33.682 50.9923 33.6666 50.4687 33.6826 50.2461C37.7657 51.9491 42.3592 51.9143 46.3469 50.2544C46.3469 50.7597 46.3884 51.2581 46.4697 51.7453C46.5746 52.3732 46.2163 52.9909 45.6179 53.2077Z" fill="#FFDFBA"/>
<path d="M44.7756 61.0155L49.2131 56.8547C50.1415 57.7237 51.2493 58.3845 52.4225 58.7877C52.5275 58.8244 53.0957 59.021 53.8706 59.2876L48.1302 64.6123C45.7308 66.838 42.4159 63.228 44.7756 61.0155V61.0155Z" fill="#EEF7FF"/>
<path d="M52.4225 58.7878C52.0493 58.6595 51.6893 58.5062 51.3427 58.3345V71.3188L40.0215 74.3182L28.7003 71.3188V58.3079C28.347 58.4862 27.9771 58.6411 27.5955 58.7728C25.5937 59.4721 20.4868 61.2078 20.3402 61.2706C20.3677 61.3456 20.3585 59.993 20.3585 78.6382C73.9348 78.6765 5.97957 78.6277 59.6845 78.664C59.6845 60.4865 59.6808 61.3316 59.6912 61.3006C59.6912 61.3006 54.3495 59.4581 52.4225 58.7878Z" fill="#585966"/>
<path d="M44.3632 73.1686L51.3427 71.319V58.3347C51.9156 58.6185 52.1352 58.693 53.7753 59.2564C54.3137 59.4413 54.6754 59.9479 54.6754 60.5171V71.9593C54.6754 72.5641 54.2693 73.0928 53.6848 73.2478C51.2147 73.9023 44.9812 75.5538 44.9951 75.5502C44.3374 75.7243 43.663 75.3324 43.4889 74.6747C43.3144 74.0169 43.7055 73.3427 44.3632 73.1686V73.1686Z" fill="#6E6F80"/>
<path d="M23.6912 61.9851V77.3059C23.6912 78.0422 23.0954 78.6384 22.359 78.6381H20.3585C20.3585 60.4963 20.3687 61.3483 20.3402 61.2705C20.346 61.268 20.4089 61.2439 20.4152 61.2439C20.4757 61.2224 21.0839 61.0132 21.9241 60.7245C22.7894 60.4273 23.6912 61.0701 23.6912 61.9851V61.9851Z" fill="#6E6F80"/>
<path d="M35.8605 32.8235C36.5963 32.8237 37.1942 32.2271 37.1947 31.4913V29.1584C37.1952 28.4222 36.599 27.8246 35.8628 27.8245C35.1269 27.8243 34.5291 28.4209 34.5286 29.1567V31.4896C34.5281 32.2258 35.1241 32.8232 35.8605 32.8235Z" fill="black"/>
<path d="M44.1921 32.8286C44.928 32.8288 45.5259 32.2323 45.5264 31.4964V29.1635C45.5269 28.4273 44.9307 27.8298 44.1945 27.8296C43.4586 27.8294 42.8607 28.426 42.8602 29.1618V31.4947C42.8597 32.2309 43.4558 32.8285 44.1921 32.8286Z" fill="black"/>
<path d="M60.0407 60.0099L52.8584 57.5284C51.8328 57.1741 50.9121 56.62 50.1219 55.8819C49.6793 55.4671 48.995 55.4004 48.4757 55.7459C48.3291 55.8434 48.8617 55.3569 41.9001 61.8819H38.1152L36.4858 60.3493C35.9494 59.8451 35.1056 59.8713 34.6013 60.4078C34.0971 60.9442 34.1233 61.7879 34.6598 62.2921L36.0584 63.6066L33.5897 71.2351L30.0342 70.2931V59.0917C32.5615 57.5569 34.3229 55.001 34.8498 52.0801C46.186 55.5193 57.7538 47.1053 57.854 35.1667C57.8603 34.9553 57.8546 34.8426 57.858 24.2106C57.8596 19.0654 53.6811 14.8715 48.5356 14.8684H31.5327C26.3904 14.8684 22.2018 19.0456 22.1987 24.1888V32.831C21.3085 32.3686 20.7023 31.4489 20.7028 30.3911V14.1508C20.7039 12.4268 22.1065 10.9868 23.874 10.9868C24.4317 10.9868 24.915 10.6468 25.1143 10.1496C26.9371 5.60045 31.2798 2.66617 36.1797 2.66617H47.4533C54.0265 2.67033 59.366 8.02499 59.362 14.5984V30.3386C59.3615 31.0748 59.9534 31.6724 60.6898 31.6726C61.4256 31.6727 62.0277 31.0762 62.0282 30.3403V14.5999C62.0334 6.5566 55.4986 0.00499906 47.4551 0H36.1797C30.4648 0 25.3687 3.26289 22.9727 8.38926C20.1972 8.81751 18.0386 11.2259 18.0368 14.149V30.3893C18.0351 32.9407 19.8148 35.0859 22.211 35.6618C22.3628 39.8664 23.9825 43.8684 26.8195 46.9935C27.3142 47.5388 28.1574 47.5796 28.7024 47.0847C29.2475 46.5898 29.2883 45.7468 28.7934 45.2015C26.2634 42.4142 24.871 38.8071 24.8642 35.0403V24.1905C24.8665 20.5165 27.8594 17.5345 31.5329 17.5345H48.5339C52.1777 17.5367 55.1941 20.4877 55.1918 24.209V35.0228C55.185 45.9161 44.0411 53.1885 34.1138 48.9823C33.046 48.5297 31.9553 49.5662 32.3376 50.6517C32.172 53.7639 30.1347 56.4897 27.1624 57.5124L19.9774 59.9848C15.8105 61.4261 13.0077 65.3541 13.0049 69.7646V78.6341C13.0044 79.3703 13.5984 79.9678 14.3348 79.968C15.0707 79.9682 15.6705 79.3716 15.671 78.6358V69.7662C15.6727 67.1872 16.9658 64.8308 19.0253 63.4231V78.6511C19.0253 79.3873 19.6221 79.9842 20.3583 79.9842C21.0945 79.9842 21.6914 79.3873 21.6914 78.6511V62.2147L27.3679 60.2614V71.3191C27.3679 71.9238 27.7749 72.4529 28.3595 72.6077L38.6882 75.3444V78.6511C38.6882 79.3873 39.2851 79.9842 40.0213 79.9842C40.7575 79.9842 41.3544 79.3873 41.3544 78.6511V75.3442L51.6831 72.6075C52.2677 72.4527 52.6748 71.9237 52.6748 71.319V65.9598C52.6748 65.2236 52.0779 64.6267 51.3417 64.6267C50.6055 64.6267 50.0086 65.2236 50.0086 65.9598V70.2931L40.0213 72.9393L36.1705 71.919L38.5563 64.5482H41.4557L42.4109 67.5132C42.6367 68.2139 43.3875 68.5988 44.0886 68.3732C44.7893 68.1474 45.1744 67.3962 44.9486 66.6955L43.9549 63.6117L49.2709 58.6282C50.0978 59.2319 51.0064 59.7095 51.9879 60.0486L58.3515 62.2472V78.6509C58.3515 79.3871 58.9484 79.984 59.6846 79.984C60.4208 79.984 61.0177 79.3871 61.0177 78.6509V63.4689C63.0583 64.8817 64.3306 67.2299 64.3289 69.7967V78.6662C64.3284 79.4024 64.9226 80 65.6588 80.0002C66.3947 80.0003 66.9946 79.4038 66.9951 78.6679V69.7984C66.9976 65.3881 64.2054 61.4568 60.0407 60.0099V60.0099Z" fill="black"/>
</g>
<defs>
<clipPath id="clip0">
<rect width="80" height="80" fill="white"/>
</clipPath>
</defs>
</svg>
