<svg width="80" height="80" viewBox="0 0 80 80" fill="none" xmlns="http://www.w3.org/2000/svg">
<circle cx="40" cy="40" r="40" fill="#B41E3C"/>
<path d="M58 53.2C54.0211 51.09 50.9691 49.9069 48.2522 49.4533L48.5334 49.0667C48.6667 48.9334 48.7334 48.7334 48.6667 48.5334L48.042 46.0344C48.2684 45.7143 48.482 45.3834 48.682 45.0431C51.1664 44.1976 52.4227 42.7683 52.6338 40.6639C53.7251 40.607 54.6666 39.633 54.6666 38.5334V33.5334C54.6666 32.4387 53.7958 31.4686 52.6549 31.4037C52.5081 27.5524 50.81 20 40 20C29.1898 20 27.4918 27.5527 27.345 31.4039C26.2627 31.4678 25.3334 32.3765 25.3334 33.5333V38.5333C25.3334 39.6666 26.3334 40.6666 27.5334 40.6666H28.5334C28.9009 40.6666 29.2541 40.561 29.5617 40.3802C29.9398 42.3869 30.7741 44.3605 31.9581 46.0343L31.3334 48.5333C31.3334 48.6666 31.3334 48.8666 31.4667 49.0666L31.7479 49.4532C29.031 49.9069 25.979 51.0899 22.0001 53.1999C20.7334 53.8 20 55.0666 20 56.4666V59.3333C20 59.7334 20.2666 60 20.6666 60H36.6666H36.9333H43.0666H43.3333H59.3333C59.7333 60 59.9999 59.7334 59.9999 59.3334V56.4667C60 55.1334 59.2 53.8666 58 53.2ZM40.0037 51.6751L41.6 55.3334H38.3777L40.0037 51.6751ZM37.8934 56.6666H42.1041L42.4943 58.6666H37.4933L37.8934 56.6666ZM47 47.3334L47.2666 48.5334L46.5856 49.4684C46.5422 49.504 46.502 49.547 46.4666 49.6L43.6936 53.4396L42.8137 54.6477L41.0165 50.6039C43.2085 50.3366 45.1605 49.2194 46.7256 47.6186C46.8181 47.5253 46.9097 47.4305 47 47.3334ZM49.6032 43.1862C49.9792 42.2713 50.2627 41.3203 50.4419 40.3617C50.6957 40.5155 50.9847 40.6182 51.2963 40.653C51.1807 41.5954 50.762 42.4851 49.6032 43.1862ZM53.2666 33.4666V38.4666C53.2666 38.8666 52.9333 39.2666 52.4666 39.2666H51.4666C51.0666 39.2666 50.6666 38.9333 50.6666 38.4666V38V33.4666C50.6666 33.0666 51 32.6666 51.4666 32.6666H52.4666C52.8666 32.6666 53.2666 33 53.2666 33.4666ZM40 21.3334C44.1091 21.3334 51.0248 22.6748 51.3222 31.4109C51.0428 31.4395 50.7752 31.5245 50.5332 31.6549C49.722 26.5783 45.2959 22.6666 40 22.6666C34.7048 22.6666 30.2792 26.5772 29.4671 31.6527C29.2287 31.524 28.9624 31.4389 28.6777 31.4106C28.9752 22.6748 35.8909 21.3334 40 21.3334ZM29.2666 38.4666C29.2666 38.8666 28.9333 39.2666 28.4666 39.2666H27.4666C27.0666 39.2666 26.6666 38.9333 26.6666 38.4666V33.4666C26.6666 33.0666 27 32.6666 27.4666 32.6666H28.4666C28.8666 32.6666 29.2666 33 29.2666 33.4666V38.4666ZM30.6666 33.3334C30.6666 28.2 34.8666 24 40 24C45.1334 24 49.3334 28.2 49.3334 33.3334V38C49.3334 40.2056 48.7591 42.2249 47.8282 43.9287C46.237 44.3902 43.9478 44.6666 40.6667 44.6666C40.2667 44.6666 40.0001 44.9333 40.0001 45.3333C40.0001 45.7333 40.2667 45.9999 40.6667 45.9999C43.0687 45.9999 45.0775 45.8524 46.7226 45.5441C46.6817 45.5849 46.6409 45.6258 46.6 45.6666C46.2646 46.1138 45.9106 46.5216 45.5408 46.8892C43.971 48.3516 42.0987 49.2375 40.2945 49.3252C40.2037 49.2863 40.102 49.2666 40 49.2666C39.8975 49.2666 39.8052 49.2867 39.7223 49.3261C38.618 49.2755 37.4877 48.9254 36.4164 48.3266C35.331 47.703 34.31 46.8041 33.4 45.6666C33.3334 45.6 33.2666 45.5333 33.2 45.4666L33.1611 45.4537C31.6639 43.4901 30.6666 40.9069 30.6666 38V33.3334ZM38.9834 50.6039L37.1862 54.6477L36.3063 53.4396L33.5333 49.6C33.512 49.5788 33.4886 49.5577 33.4642 49.537L32.7333 48.5334L32.9999 47.3334C33.0902 47.4305 33.1817 47.5252 33.2741 47.6184C34.8392 49.2192 36.7914 50.3365 38.9834 50.6039ZM21.3334 56.4666C21.3334 55.6 21.8 54.8 22.6 54.4C26.8495 52.1425 29.9084 51.0095 32.6334 50.671L36.6117 56.1412L36.1066 58.6666H21.3334V56.4666ZM58.6666 58.6666H43.8934L43.3883 56.1412L47.4097 50.6117C50.1251 51.0215 53.239 52.1537 57.4001 54.3333C58.2001 54.7999 58.6667 55.5999 58.6667 56.4666V58.6666H58.6666Z" fill="white"/>
</svg>
