<svg width="80" height="80" viewBox="0 0 80 80" fill="none" xmlns="http://www.w3.org/2000/svg">
<circle cx="40" cy="40" r="40" fill="#B41E3C"/>
<path d="M43.6797 31.9258C43.9449 32.1116 44.3102 32.0469 44.4957 31.7821L45.7421 30.0017C45.9279 29.7365 45.8635 29.3712 45.5983 29.1856C45.3331 29.0001 44.9678 29.0645 44.7823 29.3297L43.5357 31.1098C43.3501 31.3749 43.4145 31.7402 43.6797 31.9258Z" fill="white"/>
<path d="M46.6934 30.4988L46.2701 32.6304C46.1984 32.993 46.4758 33.3305 46.8457 33.3305C47.1197 33.3305 47.3645 33.1373 47.4197 32.8587L47.8427 30.7267C47.9059 30.4094 47.6996 30.1008 47.3822 30.038C47.0645 29.9751 46.7563 30.1811 46.6934 30.4988Z" fill="white"/>
<path d="M44.1868 27.8007C44.0192 27.5239 43.6588 27.4357 43.382 27.6032L41.5235 28.7299C41.2467 28.8978 41.1585 29.2582 41.3261 29.535C41.4942 29.8118 41.8546 29.8997 42.1311 29.7321L43.9896 28.6057C44.2664 28.4379 44.3546 28.0775 44.1868 27.8007V27.8007Z" fill="white"/>
<path d="M26.5357 30.2015C26.7512 30.3077 27.0133 30.3114 27.2364 30.2015C27.7833 29.9317 29.5673 28.9118 29.5673 27.1183C29.5673 25.6962 27.9099 25.0037 26.8867 25.8625C26.4911 25.5296 25.9537 25.4023 25.4215 25.543C24.6937 25.7349 24.2051 26.3682 24.2051 27.1183C24.2051 28.9164 25.9897 29.9333 26.5357 30.2015ZM26.2406 26.8916C26.3499 27.0844 26.5897 27.2529 26.8674 27.2596C27.1473 27.2685 27.4122 27.0997 27.5284 26.8961C27.7671 26.4777 28.3954 26.6505 28.3954 27.1186C28.3954 28.1101 27.349 28.8035 26.8857 29.062C26.4225 28.8047 25.377 28.1132 25.377 27.1186C25.377 26.6465 26.0087 26.4832 26.2406 26.8916Z" fill="white"/>
<path d="M31.0273 26.4076H33.3427C33.6665 26.4076 33.9286 26.1454 33.9286 25.8217C33.9286 25.4982 33.6665 25.2357 33.3427 25.2357H31.0273C30.7036 25.2357 30.4414 25.4982 30.4414 25.8217C30.4414 26.1454 30.7036 26.4076 31.0273 26.4076Z" fill="white"/>
<path d="M31.0273 28.4709H33.3427C33.6665 28.4709 33.9286 28.2087 33.9286 27.8849C33.9286 27.5612 33.6665 27.299 33.3427 27.299H31.0273C30.7036 27.299 30.4414 27.5612 30.4414 27.8849C30.4414 28.2084 30.7036 28.4709 31.0273 28.4709Z" fill="white"/>
<path d="M31.0273 30.5342H33.3427C33.6665 30.5342 33.9286 30.272 33.9286 29.9482C33.9286 29.6245 33.6665 29.3623 33.3427 29.3623H31.0273C30.7036 29.3623 30.4414 29.6245 30.4414 29.9482C30.4414 30.272 30.7036 30.5342 31.0273 30.5342Z" fill="white"/>
<path d="M58.7322 19.485C59.056 19.485 59.3181 19.2229 59.3181 18.8991C59.3181 18.5753 59.056 18.3132 58.7322 18.3132H52.9735C52.9644 18.3132 52.9555 18.3141 52.9464 18.3144C52.7514 18.3043 52.5557 18.3913 52.4355 18.5631L50.4128 21.4516L47.8472 19.655C46.4901 18.7047 44.8079 18.3824 43.1914 18.7535L42.9885 18.6113C42.2393 18.087 41.2059 18.2716 40.6838 19.0175L40.2175 19.6834C39.6944 20.4305 39.8766 21.4647 40.624 21.9878L40.7839 22.0998C40.248 24.4917 42.8826 26.3249 44.9385 25.009L45.266 25.2382C44.7307 27.6265 47.3601 29.4661 49.4204 28.1474L49.7481 28.3766C49.2122 30.7686 51.8468 32.6015 53.9025 31.2856L54.063 31.3982C54.8104 31.9212 55.8443 31.7391 56.3674 30.9917L56.8337 30.3258C57.3568 29.5787 57.1746 28.5445 56.4275 28.0214L56.1718 27.8423C55.9676 26.1965 55.0893 24.7261 53.7322 23.7755L51.3729 22.1239L53.2207 19.485H58.7322ZM41.8996 22.8813L43.8231 24.2284C42.9015 24.4466 42.0089 23.8194 41.8996 22.8813ZM46.3814 26.0194L48.3052 27.3665C47.3858 27.585 46.491 26.9597 46.3814 26.0194ZM50.8635 29.1579C52.029 29.9739 51.6274 29.6925 52.7874 30.5049C51.8676 30.7234 50.9731 30.0975 50.8635 29.1579ZM55.8736 29.6535L55.4073 30.3194C55.2547 30.5373 54.9532 30.5907 54.735 30.4381C54.5467 30.3063 41.4647 21.1458 41.296 21.028C41.0796 20.8763 41.0259 20.5724 41.1776 20.3557L41.6439 19.6898C41.7962 19.4725 42.1004 19.4203 42.3162 19.5714L55.7552 28.9812C55.9719 29.1329 56.0253 29.4371 55.8736 29.6535ZM54.7094 26.8184C54.0926 26.3863 44.9401 19.9779 44.6538 19.7774C45.5501 19.8048 46.4251 20.0899 47.1752 20.6151L53.0599 24.7356C53.8097 25.2608 54.377 25.9856 54.7094 26.8184Z" fill="white"/>
<path d="M58.3453 42.5715H41.3672C41.0434 42.5715 40.7812 42.834 40.7812 43.1575C40.7812 43.4813 41.0434 43.7437 41.3672 43.7437H58.3453C58.6115 43.7437 58.8281 43.9601 58.8281 44.2262V45.2949C58.8281 45.561 58.6115 45.7777 58.3453 45.7777C58.0762 45.7777 22.1259 45.7777 21.6547 45.7777C21.3885 45.7777 21.1719 45.5613 21.1719 45.2949V44.2262C21.1719 43.9601 21.3885 43.7437 21.6547 43.7437H38.6328C38.9566 43.7437 39.2188 43.4813 39.2188 43.1575C39.2188 42.834 38.9566 42.5715 38.6328 42.5715H31.9644C32.0111 42.4189 32.0367 42.2569 32.0367 42.0891V41.0203C32.0367 40.1078 31.2946 39.3657 30.3821 39.3657H21.6547C20.7422 39.3657 20 40.1078 20 41.0203V42.0891C20 42.4965 20.1486 42.8691 20.3937 43.1578C20.1486 43.4462 20 43.8191 20 44.2262V45.2949C20 46.1799 20.6989 46.9026 21.5732 46.9456V47.462C21.5732 48.3745 22.3157 49.1166 23.2278 49.1166H24.8462V56.5495C24.8462 57.165 25.347 57.6658 25.9628 57.6658H27.0685C27.684 57.6658 28.1851 57.165 28.1851 56.5495V49.1166H51.8149V56.5495C51.8149 57.165 52.3157 57.6658 52.9315 57.6658H54.0372C54.653 57.6658 55.1538 57.165 55.1538 56.5495V49.1166H56.7719C57.6843 49.1166 58.4265 48.3745 58.4265 47.462V46.9456C59.3011 46.9026 60 46.1799 60 45.2949V44.2262C60 43.314 59.2578 42.5715 58.3453 42.5715V42.5715ZM21.1719 41.0203C21.1719 40.7542 21.3885 40.5375 21.6547 40.5375H30.3821C30.6482 40.5375 30.8649 40.7542 30.8649 41.0203V42.0891C30.8649 42.3552 30.6482 42.5718 30.3821 42.5718H21.6547C21.3885 42.5718 21.1719 42.3552 21.1719 42.0891V41.0203ZM27.0129 56.494H26.0181V49.1166H27.0129V56.494ZM53.9819 56.494H52.9868V49.1166H53.9819V56.494ZM57.2546 47.462C57.2546 47.7281 57.0383 47.9448 56.7719 47.9448C55.7004 47.9448 24.3472 47.9448 23.2278 47.9448C22.9617 47.9448 22.7451 47.7281 22.7451 47.462V46.9496H57.2546V47.462Z" fill="white"/>
<path d="M37.8876 27.1037C38.2114 27.1037 38.4735 26.8412 38.4735 26.5178V23.304C38.4735 22.0292 37.4365 20.9919 36.1618 20.9919H22.3117C21.037 20.9919 20 22.0289 20 23.304V32.4662C20 33.741 21.037 34.778 22.3117 34.778H36.1618C37.4365 34.778 38.4738 33.741 38.4738 32.4662V29.2521C38.4738 28.9286 38.2114 28.6662 37.8876 28.6662C37.5641 28.6662 37.3016 28.9286 37.3016 29.2521V32.4662C37.3016 33.0946 36.7902 33.6061 36.1618 33.6061H22.3117C21.6833 33.6061 21.1719 33.0946 21.1719 32.4662V23.304C21.1719 22.6753 21.6833 22.1638 22.3117 22.1638H36.1618C36.7902 22.1638 37.3016 22.6753 37.3016 23.304V26.5178C37.3016 26.8412 37.5641 27.1037 37.8876 27.1037Z" fill="white"/>
<path d="M22.7168 23.1227C22.393 23.1227 22.1309 23.3851 22.1309 23.7086V32.0613C22.1309 32.3851 22.393 32.6472 22.7168 32.6472H35.757C36.0807 32.6472 36.3429 32.3851 36.3429 32.0613V23.7086C36.3429 23.3851 36.0807 23.1227 35.757 23.1227H22.7168ZM35.171 31.4753H23.3027V24.2946H35.171V31.4753Z" fill="white"/>
</svg>
