<svg width="20" height="20" viewBox="0 0 20 20" fill="none" xmlns="http://www.w3.org/2000/svg">
<g clip-path="url(#clip0)">
<path d="M20 14.9051C20 16.0018 19.129 16.8728 18.0645 16.8728H1.93547C0.870977 16.8728 0 16.0018 0 14.9051V5.09859C0 4.00184 0.870977 3.13086 1.93547 3.13086H18.0645C19.129 3.13086 20 4.00184 20 5.09859V14.9051H20Z" fill="#009B3A"/>
<path d="M1.93555 3.13086H18.0646C19.1291 3.13086 20 4.00184 20 5.09859V14.905C20 16.0018 19.1291 16.8728 18.0646 16.8728" fill="#007C29"/>
<path d="M1.93555 3.13086H18.0646C19.1291 3.13086 20 4.00184 20 5.09859V8.67926" fill="#006D21"/>
<path d="M20 14.9043C20 16.0011 19.129 16.872 18.0645 16.872H1.93547C0.870977 16.872 0 16.0011 0 14.9043" fill="#006D21"/>
<path d="M1.22656 10.0016L10.0007 15.6145L18.7749 10.0016L10.0007 4.38867L1.22656 10.0016Z" fill="#FEDF00"/>
<path d="M10.0011 15.6139L11.0978 14.9043H8.9043L10.0011 15.6139Z" fill="#FCC000"/>
<path d="M6.22656 6.80801L13.7749 13.1951L18.7749 10.0016L10.0007 4.38867L6.22656 6.80801Z" fill="#FCC000"/>
<path d="M9.99877 13.7085C12.0476 13.7085 13.7085 12.0476 13.7085 9.99877C13.7085 7.94995 12.0476 6.28906 9.99877 6.28906C7.94995 6.28906 6.28906 7.94995 6.28906 9.99877C6.28906 12.0476 7.94995 13.7085 9.99877 13.7085Z" fill="#002776"/>
<path d="M9.9998 6.28906C8.87078 6.28906 7.87078 6.80519 7.19336 7.57937L12.8385 12.3858C13.3869 11.7407 13.7095 10.902 13.7095 9.99873C13.7095 7.96648 12.0321 6.28906 9.9998 6.28906Z" fill="#021E47"/>
<path d="M6.60113 8.51426C6.51949 8.70075 6.4527 8.8952 6.40234 9.09618C6.89984 9.00887 7.41242 8.96469 7.93625 8.96829C10.0922 8.96829 12.0558 9.77056 13.5468 11.0931C13.6042 10.9066 13.6471 10.7136 13.6746 10.5158C12.1119 9.20794 10.0995 8.41992 7.90395 8.41992C7.46152 8.41988 7.0266 8.4525 6.60113 8.51426Z" fill="white"/>
</g>
<defs>
<clipPath id="clip0">
<rect width="20" height="20" fill="white"/>
</clipPath>
</defs>
</svg>
