<svg width="80" height="80" viewBox="0 0 80 80" fill="none" xmlns="http://www.w3.org/2000/svg">
<g clip-path="url(#clip0)">
<path d="M79.1194 50.895C77.5343 48.4104 74.2721 47.5813 71.6931 49.0073L68.8547 50.5765V27.2175L73.7493 31.8595C74.0031 32.1002 74.3277 32.2195 74.6518 32.2195C74.9992 32.2195 75.3461 32.0823 75.6039 31.8103C76.1024 31.2847 76.0806 30.4544 75.5548 29.9557L48.6436 4.43298C48.1373 3.953 47.3441 3.953 46.838 4.43298L19.9265 29.9559C19.4009 30.4545 19.3788 31.2849 19.8773 31.8105C20.376 32.3361 21.2064 32.358 21.732 31.8597L26.6266 27.2175V39.7676C24.5239 39.9509 22.4651 40.5671 20.5935 41.6014L0.677594 52.6067C0.0484127 52.9545 -0.183704 53.7437 0.156862 54.3767L11.3844 75.2368C11.5587 75.5608 11.8612 75.7967 12.218 75.8868C12.324 75.9138 12.4321 75.9269 12.5395 75.9269C12.7933 75.9269 13.0443 75.8532 13.2604 75.711L22.7107 69.496L48.7034 73.4229C51.4562 73.8389 54.2686 73.2487 56.6221 71.7614L77.3911 58.6362C78.6587 57.8351 79.5366 56.5881 79.8634 55.1245C80.1901 53.6612 79.926 52.159 79.1194 50.895ZM47.7406 7.19302L66.2311 24.7291V52.0269L54.1001 58.7338L40.1147 56.3649C37.5892 55.937 35.6753 53.9087 35.2903 51.4705L51.0158 54.0259C53.5156 54.4324 55.9504 52.8252 56.5605 50.3676C56.8861 49.0555 56.6669 47.7041 55.9434 46.5624C55.6781 46.1437 55.3578 45.7748 54.9938 45.4619V32.8315C54.9938 32.107 54.4064 31.5196 53.6819 31.5196H41.7999C41.0754 31.5196 40.488 32.107 40.488 32.8315V41.9185L30.9299 40.0023C30.373 39.8907 29.8124 39.8144 29.2505 39.7662V24.7291L47.7406 7.19302ZM52.3698 44.3004L43.1116 42.4443V34.1432H52.3698V44.3004ZM77.3027 54.5529C77.1292 55.3302 76.6627 55.9926 75.9894 56.4182L55.2205 69.5434C53.4001 70.6938 51.2247 71.1507 49.0952 70.8285L22.6057 66.8266C22.2861 66.7785 21.9594 66.8498 21.689 67.0277L13.0156 72.7316L3.08202 54.2756L21.8623 43.8977C24.4632 42.4606 27.5003 41.9909 30.4139 42.5746L52.25 46.9522C52.8661 47.0756 53.3907 47.436 53.7269 47.9667C54.0631 48.4974 54.165 49.1255 54.0137 49.7355C53.7302 50.8778 52.5972 51.6248 51.4365 51.4358L34.1468 48.6263C33.7874 48.5682 33.4201 48.6615 33.1325 48.8845C32.8447 49.1077 32.6627 49.4402 32.6299 49.8028C32.2318 54.1962 35.3268 58.2148 39.6764 58.9516L54.1141 61.3971C54.4069 61.4469 54.7082 61.3955 54.9679 61.2517L72.9625 51.3031C74.3326 50.5459 76.0653 50.9861 76.9072 52.3059C77.336 52.9776 77.4762 53.7755 77.3027 54.5529Z" fill="#B41E3C"/>
</g>
<defs>
<clipPath id="clip0">
<rect width="80" height="80" fill="white"/>
</clipPath>
</defs>
</svg>
