<svg width="80" height="80" viewBox="0 0 80 80" fill="none" xmlns="http://www.w3.org/2000/svg">
<circle cx="40" cy="40" r="40" fill="#B41E3C"/>
<path d="M64.4497 43.2638C63.459 41.7109 61.4201 41.1927 59.8082 42.084L58.0342 43.0647V28.4653L61.0933 31.3666C61.252 31.517 61.4549 31.5916 61.6575 31.5916C61.8746 31.5916 62.0914 31.5059 62.2525 31.3359C62.5641 31.0073 62.5504 30.4884 62.2218 30.1767L45.4023 14.225C45.0859 13.925 44.5901 13.925 44.2738 14.225L27.4541 30.1768C27.1256 30.4885 27.1118 31.0074 27.4234 31.336C27.735 31.6645 28.254 31.6782 28.5825 31.3667L31.6416 28.4653V36.3091C30.3274 36.4237 29.0407 36.8088 27.8709 37.4553L15.4235 44.3336C15.0303 44.551 14.8852 45.0442 15.098 45.4399L22.1152 58.4774C22.2242 58.6799 22.4132 58.8274 22.6363 58.8837C22.7025 58.9005 22.7701 58.9087 22.8372 58.9087C22.9958 58.9087 23.1527 58.8627 23.2877 58.7738L29.1942 54.8894L45.4396 57.3437C47.1602 57.6037 48.9179 57.2349 50.3889 56.3053L63.3695 48.102C64.1617 47.6013 64.7104 46.822 64.9147 45.9072C65.1189 44.9926 64.9538 44.0538 64.4497 43.2638ZM44.8379 15.95L56.3945 26.9101V43.9712L48.8126 48.163L40.0717 46.6825C38.4933 46.415 37.2971 45.1473 37.0565 43.6235L46.8849 45.2206C48.4473 45.4746 49.9691 44.4702 50.3504 42.9342C50.5538 42.1141 50.4168 41.2695 49.9647 40.5559C49.7988 40.2942 49.5987 40.0636 49.3712 39.8681V31.9741C49.3712 31.5213 49.0041 31.1542 48.5512 31.1542H41.125C40.6721 31.1542 40.305 31.5213 40.305 31.9741V37.6535L34.3312 36.4558C33.9831 36.3861 33.6327 36.3384 33.2816 36.3082V26.9101L44.8379 15.95ZM47.7312 39.1421L41.9448 37.9821V32.7939H47.7312V39.1421ZM63.3143 45.55C63.2058 46.0358 62.9142 46.4498 62.4935 46.7158L49.5128 54.919C48.3751 55.6381 47.0154 55.9236 45.6845 55.7222L29.1286 53.221C28.9289 53.191 28.7246 53.2356 28.5556 53.3467L23.1348 56.9117L16.9263 45.3767L28.664 38.8905C30.2895 37.9923 32.1877 37.6987 34.0087 38.0636L47.6563 40.7995C48.0413 40.8767 48.3692 41.1019 48.5793 41.4336C48.7894 41.7653 48.8532 42.1579 48.7586 42.5391C48.5814 43.2531 47.8733 43.7199 47.1478 43.6018L36.3418 41.8458C36.1171 41.8095 35.8876 41.8678 35.7078 42.0072C35.528 42.1467 35.4142 42.3545 35.3937 42.5812C35.1449 45.3271 37.0793 47.8387 39.7978 48.2991L48.8214 49.8276C49.0044 49.8588 49.1926 49.8266 49.355 49.7368L60.6016 43.5188C61.4579 43.0456 62.5409 43.3207 63.0671 44.1456C63.335 44.5654 63.4227 45.0641 63.3143 45.55Z" fill="white"/>
</svg>
