<svg width="80" height="80" viewBox="0 0 80 80" fill="none" xmlns="http://www.w3.org/2000/svg">
<g clip-path="url(#clip0)">
<path d="M36.25 31.25H33.75C33.0597 31.25 32.5 30.6903 32.5 30C32.5 29.3097 33.0597 28.75 33.75 28.75H38.75V26.25H36.25V23.75H33.75V26.25C31.6791 26.25 30 27.9291 30 30C30 32.0709 31.6791 33.75 33.75 33.75H36.25C36.9403 33.75 37.5 34.3097 37.5 35C37.5 35.6903 36.9403 36.25 36.25 36.25H31.25V38.75H33.75V41.25H36.25V38.75C38.3209 38.75 40 37.0709 40 35C40 32.9291 38.3209 31.25 36.25 31.25Z" fill="#B41E3C"/>
<path d="M24.4125 15.5475L23.088 13.4222C18.4976 16.2885 15.0936 20.7123 13.5 25.8838L15.8901 26.6162C17.3086 22.0221 20.3341 18.0927 24.4125 15.5475Z" fill="#B41E3C"/>
<path d="M23.0874 51.5723L24.4119 49.4476C20.3347 46.9012 17.311 42.9712 15.8944 38.3777L13.5049 39.1101C15.0967 44.281 18.4982 48.7054 23.0874 51.5723Z" fill="#B41E3C"/>
<path d="M56.5006 39.1101L54.1056 38.3899C52.7189 43.0084 49.6909 46.9604 45.5918 49.5001L46.9089 51.6248C51.5262 48.7634 54.9375 44.3121 56.5006 39.1101V39.1101Z" fill="#B41E3C"/>
<path d="M48.6926 62.6886L47.9272 63.3447L48.8965 56.5613L47.8027 56.2872C44.3555 55.4181 40.8356 57.4207 39.8212 60.8276L37.7185 67.8375L33.7012 68.7299L27.1936 67.8003L31.9897 65.4022C34.4135 64.2035 35.4248 61.2805 34.2603 58.8403C33.0963 56.4001 30.188 55.3479 27.7313 56.4777L16.9812 61.3623L10.9039 65H0V67.5H11.5961L18.0823 63.609L28.7665 58.75C29.6368 58.3533 30.6586 58.5004 31.3812 59.1272C32.1039 59.754 32.395 60.7446 32.1252 61.6626C31.9379 62.3157 31.4838 62.8601 30.8752 63.1622L23.75 66.7273V69.834L33.7988 71.2702L45.5762 68.6524L50.3186 64.5862C52.0123 63.1342 54.2847 62.5531 56.4673 63.0139L48.0475 71.4337L35.9351 76.2787L26.1725 77.5H0V80H26.3287L36.405 78.7402L49.4525 73.5663L60.86 62.1576L59.3085 61.3812C55.8301 59.6375 51.6443 60.1526 48.6926 62.6886V62.6886ZM45.05 65.8136L44.425 66.3501L40.5164 67.2247L42.2174 61.554C42.7307 59.8358 44.2902 58.6432 46.0828 58.5974L45.05 65.8136Z" fill="#B41E3C"/>
<path d="M45.2203 3.93372L69.7595 13.75H79.9994V11.25H70.2393L44.7784 1.06628L30.1117 13.0664L28.9691 18.775C22.4029 21.6534 18.7933 28.7781 20.3564 35.7758C21.9189 42.7728 28.2172 47.6849 35.3845 47.4957C42.5519 47.3065 48.5822 42.0703 49.7742 35H61.4319L73.9319 31.25H79.9994V28.75H73.7494L61.0669 32.5H47.0154C45.9344 32.5043 45.0421 31.6547 44.9939 30.5743C44.9451 29.494 45.7574 28.5681 46.8341 28.4747L58.7494 27.3914V16.6248L43.5406 11.0938L37.7631 15.4272L36.6754 17.6038C35.0134 17.4023 33.3282 17.4945 31.698 17.8772L32.3871 14.4336L45.2203 3.93372ZM39.7357 17.0728L43.9581 13.9062L56.2494 18.3752V25.1086L48.4271 25.8185C46.5686 22.0752 43.23 19.2792 39.2181 18.1073L39.7357 17.0728ZM34.9994 20C39.4183 19.9994 43.5077 22.337 45.7495 26.145C43.5895 26.7737 42.2217 28.8953 42.5397 31.1218C42.8583 33.3484 44.7662 35.0018 47.0154 35H47.2369C45.921 41.4465 39.8334 45.7697 33.313 44.8871C26.7932 44.0045 22.0734 38.2196 22.5183 31.6553C22.9626 25.0909 28.4198 19.9945 34.9994 20V20Z" fill="#B41E3C"/>
<path d="M0 0H2.5V20H0V0Z" fill="#B41E3C"/>
<path d="M5 0H7.5V15H5V0Z" fill="#B41E3C"/>
<path d="M10 0H12.5V10H10V0Z" fill="#B41E3C"/>
<path d="M77.5 60H80V80H77.5V60Z" fill="#B41E3C"/>
<path d="M72.5 65H75V80H72.5V65Z" fill="#B41E3C"/>
<path d="M67.5 70H70V80H67.5V70Z" fill="#B41E3C"/>
</g>
<defs>
<clipPath id="clip0">
<rect width="80" height="80" fill="white"/>
</clipPath>
</defs>
</svg>
