<svg width="61" height="41" viewBox="0 0 61 41" fill="none" xmlns="http://www.w3.org/2000/svg">
<path d="M20.0687 0.769659C19.6253 0.776606 19.2337 1.06082 19.0897 1.48019L10.6669 26.0326H1.06769C-0.355897 26.0124 -0.355897 28.1581 1.06769 28.1378H11.4185C11.8682 28.1378 12.268 27.8522 12.4141 27.4269L20.1687 4.82274L34.5138 40.1133C34.8584 40.9609 36.0458 40.9956 36.4393 40.1697L42.1709 28.1381H48.5065V33.4013C48.5065 33.944 48.9465 34.3838 49.4891 34.3838C49.6672 34.3838 49.8419 34.3354 49.9945 34.2438L60.5209 27.9279C60.9862 27.6488 61.1371 27.0452 60.858 26.5799C60.775 26.4416 60.6592 26.326 60.5209 26.2429L49.9945 19.9271C49.8533 19.8424 49.6931 19.7946 49.5286 19.7881C48.9865 19.7662 48.5291 20.1881 48.5072 20.7302C48.5065 20.7433 48.5063 20.7565 48.5063 20.7696V26.0328H41.5063C41.1004 26.0328 40.7307 26.2663 40.556 26.6328L35.565 37.1095L21.0605 1.42566C20.8969 1.02335 20.503 0.762922 20.0687 0.769659ZM50.4714 22.5048L58.1055 27.0854L50.4714 31.6661V22.5048V22.5048ZM51.5735 24.45C51.283 24.4582 51.0539 24.7004 51.0621 24.9911C51.0672 25.1696 51.1626 25.3336 51.3152 25.4263L54.6836 27.5315C54.9259 27.6922 55.2527 27.6258 55.4131 27.3835C55.5737 27.1412 55.5074 26.8145 55.2651 26.654C55.2573 26.649 55.2495 26.6439 55.2415 26.6393L51.8731 24.534C51.784 24.4763 51.6796 24.4471 51.5735 24.45Z" fill="#B41E3C"/>
</svg>
