<svg width="80" height="80" viewBox="0 0 80 80" fill="none" xmlns="http://www.w3.org/2000/svg">
<circle cx="40" cy="40" r="40" fill="#B41E3C"/>
<path d="M55.875 49.125H51.5V27.25H50.25V49.125H48.6338L46.9419 47.4331C46.825 47.3156 46.6656 47.25 46.5 47.25H40.875C40.53 47.25 40.25 47.53 40.25 47.875V54.75H25.25V28.5H30.875C31.22 28.5 31.5 28.22 31.5 27.875V22.25H47.75V47.25H49V21.625C49 21.28 48.72 21 48.375 21H30.875C30.7025 21 30.5462 21.07 30.4331 21.1831L24.1838 27.4325C24.07 27.5462 24 27.7025 24 27.875V55.375C24 55.72 24.28 56 24.625 56H40.25V57.25H29V58.5H40.25V59.125C40.25 59.47 40.53 59.75 40.875 59.75H55.875C56.22 59.75 56.5 59.47 56.5 59.125V49.75C56.5 49.405 56.22 49.125 55.875 49.125ZM26.1337 27.25L30.25 23.1338V27.25H26.1337ZM46.2412 48.5L47.9331 50.1919C48.05 50.3094 48.2094 50.375 48.375 50.375H55.25V51.625H43.375C43.1125 51.625 42.8775 51.7894 42.7875 52.0363L41.5 55.5769V48.5H46.2412ZM41.7675 58.5L43.8125 52.875H55.25V58.5H41.7675Z" fill="white"/>
<path d="M26.5 29.75H27.75V31H26.5V29.75Z" fill="white"/>
<path d="M29 29.75H30.25V31H29V29.75Z" fill="white"/>
<path d="M31.5 29.75H46.5V31H31.5V29.75Z" fill="white"/>
<path d="M45.25 32.25H46.5V33.5H45.25V32.25Z" fill="white"/>
<path d="M42.75 32.25H44V33.5H42.75V32.25Z" fill="white"/>
<path d="M26.5 32.25H41.5V33.5H26.5V32.25Z" fill="white"/>
<path d="M26.5 34.75H27.75V36H26.5V34.75Z" fill="white"/>
<path d="M29 34.75H30.25V36H29V34.75Z" fill="white"/>
<path d="M31.5 34.75H46.5V36H31.5V34.75Z" fill="white"/>
<path d="M45.25 37.25H46.5V38.5H45.25V37.25Z" fill="white"/>
<path d="M42.75 37.25H44V38.5H42.75V37.25Z" fill="white"/>
<path d="M26.5 37.25H41.5V38.5H26.5V37.25Z" fill="white"/>
<path d="M26.5 39.75H27.75V41H26.5V39.75Z" fill="white"/>
<path d="M29 39.75H30.25V41H29V39.75Z" fill="white"/>
<path d="M31.5 39.75H46.5V41H31.5V39.75Z" fill="white"/>
<path d="M45.25 42.25H46.5V43.5H45.25V42.25Z" fill="white"/>
<path d="M42.75 42.25H44V43.5H42.75V42.25Z" fill="white"/>
<path d="M26.5 42.25H41.5V43.5H26.5V42.25Z" fill="white"/>
</svg>
