<svg width="80" height="80" viewBox="0 0 80 80" fill="none" xmlns="http://www.w3.org/2000/svg">
<circle cx="40" cy="40" r="40" fill="#B41E3C"/>
<path d="M32.6667 50.6666C30.0893 50.6666 28 52.756 28 55.3333C28 57.9106 30.0893 60 32.6667 60C35.2428 59.997 37.3304 57.9094 37.3333 55.3333C37.3333 52.756 35.244 50.6666 32.6667 50.6666ZM32.6667 58.6666C30.8258 58.6666 29.3333 57.1742 29.3333 55.3333C29.3333 53.4924 30.8258 52 32.6667 52C34.5067 52.0021 35.9978 53.4933 36 55.3333C36 57.1742 34.5076 58.6666 32.6667 58.6666Z" fill="white"/>
<path d="M48.6667 50.6666C46.0893 50.6666 44 52.756 44 55.3333C44 57.9106 46.0893 60 48.6667 60C51.2427 59.997 53.3304 57.9094 53.3333 55.3333C53.3333 52.756 51.244 50.6666 48.6667 50.6666ZM48.6667 58.6666C46.8257 58.6666 45.3333 57.1742 45.3333 55.3333C45.3333 53.4924 46.8257 52 48.6667 52C50.5067 52.0021 51.9978 53.4933 52 55.3333C52 57.1742 50.5076 58.6666 48.6667 58.6666Z" fill="white"/>
<path d="M57.12 29.3333H24.738L22.6487 20.5133C22.5776 20.2126 22.3091 20.0001 22 20H18.6667C18.2985 20 18 20.2985 18 20.6667C18 21.0348 18.2985 21.3333 18.6667 21.3333H21.4727L27.3513 46.1533C27.4224 46.4541 27.6909 46.6666 28 46.6667H53.3333C53.7015 46.6667 54 46.3682 54 46C54 45.6318 53.7015 45.3333 53.3333 45.3333H28.5273L27.58 41.3333H54.5933C54.9615 41.3702 55.2899 41.1016 55.3268 40.7334C55.3636 40.3653 55.095 40.0368 54.7268 40C54.6824 39.9956 54.6378 39.9956 54.5933 40H27.2667L26.3193 36H55.86C56.2282 36 56.5267 35.7015 56.5267 35.3333C56.5267 34.9652 56.2282 34.6667 55.86 34.6667H26L25.0533 30.6667H57.12C57.4882 30.6667 57.7867 30.3682 57.7867 30C57.7867 29.6318 57.4882 29.3333 57.12 29.3333Z" fill="white"/>
</svg>
