<svg width="40" height="40" viewBox="0 0 40 40" fill="none" xmlns="http://www.w3.org/2000/svg">
<path d="M36.6134 2.37381H30.5024V1.00887C30.5024 0.451572 30.0509 0 29.4936 0H10.5077C9.95044 0 9.49887 0.451572 9.49887 1.00887V2.37381H3.38778C2.83048 2.37381 2.37891 2.82552 2.37891 3.38269V10.5047C2.37891 10.587 2.39021 12.5458 3.37541 14.5165C4.24721 16.2604 6.03399 18.3138 9.63917 18.5999C10.2705 22.4523 13.0037 25.6042 16.6186 26.838V33.2341H12.8805C12.4461 33.2341 12.0605 33.512 11.9233 33.9242L10.3419 38.6722C10.2395 38.9798 10.2912 39.318 10.4807 39.581C10.6704 39.8441 10.9749 39.9999 11.2991 39.9999L28.7019 39.9996C29.0263 39.9996 29.3307 39.8437 29.5203 39.5807C29.7099 39.3177 29.7615 38.9796 29.659 38.6719L28.0775 33.9242C27.9402 33.512 27.5546 33.2341 27.1204 33.2341H23.3829V26.8378C26.9977 25.604 29.7308 22.452 30.3621 18.5999C33.9673 18.3138 35.7541 16.2602 36.6258 14.5165C37.6108 12.5458 37.6221 10.587 37.6221 10.5047V3.38269C37.6223 2.82552 37.1706 2.37381 36.6134 2.37381ZM5.20873 13.6709C4.41562 12.1229 4.39679 10.5179 4.39666 10.5048V4.39156H9.49901V16.5571C7.5122 16.3196 6.07045 15.3531 5.20873 13.6709ZM27.3026 37.982L12.6986 37.9822L13.608 35.252H26.3932L27.3026 37.982ZM21.3651 33.2342H18.6363V27.3086C19.0832 27.367 19.538 27.4002 20.0006 27.4002C20.4632 27.4002 20.9181 27.367 21.3653 27.3086V33.2342H21.3651ZM20.0006 25.3825C15.3226 25.3825 11.5168 21.5753 11.5168 16.8956V2.01775H28.4848V16.8957C28.4847 21.5754 24.6787 25.3825 20.0006 25.3825ZM35.6045 10.5017C35.6044 10.5177 35.5854 12.1229 34.7924 13.6709C33.9309 15.3531 32.4892 16.3196 30.5024 16.5572V4.39156H35.6045V10.5017V10.5017Z" fill="#B41E3C"/>
<path d="M25.4544 9.60033L22.5466 8.74333L20.833 6.24213C20.6449 5.96758 20.3334 5.80347 20.0006 5.80347C19.6676 5.80347 19.3564 5.96771 19.1682 6.24226L17.4549 8.74333L14.547 9.60033C14.2278 9.69436 13.9756 9.93972 13.8727 10.2562C13.7698 10.5728 13.8296 10.9195 14.0326 11.1833L15.8814 13.5867L15.7979 16.6181C15.7887 16.9509 15.9442 17.2666 16.2134 17.4622C16.4827 17.6576 16.8308 17.7079 17.1447 17.5964L20.0006 16.58L22.8569 17.5964C22.9669 17.6355 23.0814 17.6548 23.1951 17.6548C23.4053 17.6548 23.6134 17.5891 23.7882 17.4622C24.0573 17.2666 24.2128 16.9507 24.2037 16.6181L24.1201 13.5867L25.9689 11.1832C26.1718 10.9195 26.2315 10.5728 26.1287 10.2562C26.0258 9.93985 25.7736 9.69436 25.4544 9.60033ZM22.302 12.6409C22.1606 12.8248 22.0868 13.0519 22.0933 13.2838L22.1461 15.2019L20.3388 14.5588C20.2293 14.5199 20.1149 14.5004 20.0004 14.5004C19.886 14.5004 19.7716 14.5199 19.6621 14.5588L17.8552 15.2017L17.908 13.2838C17.9145 13.0518 17.8406 12.8247 17.6991 12.6408L16.5291 11.1197L18.3694 10.5773C18.5921 10.5117 18.7854 10.3712 18.9165 10.1797L20.0004 8.59738L21.0846 10.1798C21.2159 10.3712 21.4091 10.5117 21.6317 10.5773L23.472 11.1197L22.302 12.6409Z" fill="#B41E3C"/>
</svg>
