<svg width="25" height="25" viewBox="0 0 25 25" fill="none" xmlns="http://www.w3.org/2000/svg">
<path d="M22.6748 0H2.18494C0.981672 0 0 1.29462 0 2.88462V22.1154C0 23.7 0.977297 25 2.18494 25H22.6748C23.8751 25 24.8598 23.7097 24.8598 22.1154V2.88462C24.8598 1.3 23.8825 0 22.6748 0ZM22.3731 1.92308L12.4762 14.9893L2.4937 1.92308H22.3731ZM1.45663 21.7172V3.27365L8.47172 12.4557L1.45663 21.7172ZM2.48661 23.0769L9.50609 13.8096L11.9657 17.029C12.2505 17.4017 12.7099 17.4004 12.9934 17.026L15.3917 13.8598L22.3732 23.0769H2.48661ZM23.4031 21.7171L16.4217 12.5L23.4031 3.28282V21.7171Z" fill="black"/>
</svg>
