<svg width="80" height="80" viewBox="0 0 80 80" fill="none" xmlns="http://www.w3.org/2000/svg">
<circle cx="40" cy="40" r="40" fill="#B41E3C"/>
<g clip-path="url(#clip0)">
<path d="M37.1374 36.862L31.8041 31.5287C31.5434 31.268 31.1221 31.268 30.8615 31.5287C30.6009 31.7894 30.6009 32.2107 30.8615 32.4713L36.1948 37.8047C36.3248 37.9347 36.4955 38 36.6661 38C36.8368 38 37.0074 37.9347 37.1374 37.8047C37.3981 37.544 37.3981 37.1226 37.1374 36.862Z" fill="white"/>
<path d="M37.1375 31.5287C36.8768 31.268 36.4555 31.268 36.1948 31.5287L30.8615 36.862C30.6009 37.1227 30.6009 37.544 30.8615 37.8047C30.9915 37.9347 31.1622 38 31.3328 38C31.5034 38 31.6741 37.9347 31.8041 37.8047L37.1375 32.4713C37.3982 32.2107 37.3982 31.7894 37.1375 31.5287Z" fill="white"/>
<path d="M49.1387 52.862L46.4721 50.1953C46.2114 49.9346 45.7901 49.9346 45.5295 50.1953C45.2688 50.456 45.2688 50.8773 45.5295 51.1379L48.1961 53.8047C48.3261 53.9347 48.4968 54 48.6674 54C48.8381 54 49.0087 53.9347 49.1387 53.8047C49.3994 53.544 49.3994 53.1226 49.1387 52.862Z" fill="white"/>
<path d="M49.1387 50.1953C48.878 49.9346 48.4567 49.9346 48.1961 50.1953L45.5295 52.8619C45.2688 53.1226 45.2688 53.544 45.5295 53.8046C45.6595 53.9346 45.8302 53.9999 46.0008 53.9999C46.1715 53.9999 46.3421 53.9346 46.4721 53.8046L49.1387 51.1379C49.3994 50.8773 49.3994 50.456 49.1387 50.1953Z" fill="white"/>
<path d="M34.6666 47.3334C33.1959 47.3334 32 48.5294 32 50C32 51.4707 33.196 52.6667 34.6666 52.6667C36.1373 52.6667 37.3333 51.4706 37.3333 50C37.3334 48.5293 36.1373 47.3334 34.6666 47.3334ZM34.6666 51.3334C33.9313 51.3334 33.3333 50.7354 33.3333 50C33.3333 49.2647 33.9312 48.6667 34.6666 48.6667C35.402 48.6667 36 49.2647 36 50C36 50.7353 35.402 51.3334 34.6666 51.3334Z" fill="white"/>
<path d="M45.3336 42C43.8629 42 42.667 43.196 42.667 44.6666C42.667 46.1373 43.863 47.3333 45.3336 47.3333C46.8043 47.3333 48.0003 46.1373 48.0003 44.6666C48.0003 43.196 46.8043 42 45.3336 42ZM45.3336 46C44.5983 46 44.0003 45.402 44.0003 44.6666C44.0003 43.9313 44.5982 43.3333 45.3336 43.3333C46.069 43.3333 46.667 43.9312 46.667 44.6666C46.6669 45.402 46.0689 46 45.3336 46Z" fill="white"/>
<path d="M44.6667 32.6666C44.2987 32.6666 44 32.9646 44 33.3333C44 38.4799 39.8134 42.6666 34.6666 42.6666C34.2987 42.6666 34 42.9646 34 43.3333C34 43.7019 34.2987 43.9999 34.6666 43.9999C40.548 43.9999 45.3333 39.2146 45.3333 33.3333C45.3334 32.9647 45.0347 32.6666 44.6667 32.6666Z" fill="white"/>
<path d="M47.8045 35.5287L45.1378 32.862C44.8771 32.6013 44.4558 32.6013 44.1952 32.862L41.5285 35.5287C41.2678 35.7893 41.2678 36.2107 41.5285 36.4713C41.7892 36.732 42.2106 36.732 42.4712 36.4713L44.6665 34.276L46.8618 36.4713C46.9918 36.6013 47.1625 36.6666 47.3331 36.6666C47.5038 36.6666 47.6745 36.6013 47.8045 36.4713C48.0651 36.2107 48.0651 35.7893 47.8045 35.5287Z" fill="white"/>
<path d="M45.6466 22H43.9406C43.4446 22 42.9706 21.7587 42.6727 21.354C42.0487 20.5066 41.0493 20 40 20C38.9507 20 37.9513 20.5066 37.3273 21.354C37.0294 21.7587 36.5553 22 36.0594 22H34.3534C33.0554 22 32 23.056 32 24.3534V28C32 28.3687 32.2987 28.6666 32.6666 28.6666H47.3333C47.7012 28.6666 47.9999 28.3687 47.9999 28V24.3534C48 23.056 46.9447 22 45.6466 22ZM46.6666 27.3334H33.3334V24.3534C33.3334 23.7913 33.7913 23.3334 34.3534 23.3334H36.0594C36.9773 23.3334 37.8527 22.8894 38.4014 22.1447C38.7807 21.6287 39.3634 21.3334 40.0001 21.3334C40.6367 21.3334 41.2194 21.6287 41.5994 22.1447C42.1473 22.8894 43.0227 23.3334 43.9407 23.3334H45.6467C46.2088 23.3334 46.6667 23.7913 46.6667 24.3534V27.3334H46.6666Z" fill="white"/>
<path d="M51.9994 23.3334H47.3327C46.9648 23.3334 46.6661 23.6313 46.6661 24V27.3334H33.3327V24C33.3327 23.6313 33.0341 23.3334 32.6661 23.3334H27.9994C26.1614 23.3334 24.666 24.8287 24.666 26.6667V56.6667C24.666 58.5047 26.1614 60 27.9994 60H51.9994C53.8373 60 55.3327 58.5047 55.3327 56.6667V26.6667C55.3327 24.8287 53.8373 23.3334 51.9994 23.3334ZM53.9994 56.6667C53.9994 57.7693 53.102 58.6667 51.9994 58.6667H27.9994C26.8967 58.6667 25.9994 57.7693 25.9994 56.6667V26.6667C25.9994 25.564 26.8967 24.6667 27.9994 24.6667H31.9994V28C31.9994 28.3687 32.298 28.6667 32.666 28.6667H47.3327C47.7006 28.6667 47.9993 28.3687 47.9993 28V24.6667H51.9993C53.102 24.6667 53.9993 25.564 53.9993 26.6667V56.6667H53.9994Z" fill="white"/>
<path d="M50.6663 26H47.3329C46.965 26 46.6663 26.298 46.6663 26.6666V27.3333H33.333V26.6666C33.333 26.298 33.0343 26 32.6664 26H29.333C28.2304 26 27.333 26.8973 27.333 28V55.3334C27.333 56.436 28.2304 57.3334 29.333 57.3334H50.6664C51.769 57.3334 52.6664 56.436 52.6664 55.3334V28C52.6663 26.8973 51.7689 26 50.6663 26ZM51.333 55.3334C51.333 55.7013 51.0337 56 50.6664 56H29.333C28.9657 56 28.6664 55.7013 28.6664 55.3334V28C28.6664 27.632 28.9657 27.3334 29.333 27.3334H31.9996V28C31.9996 28.3687 32.2983 28.6666 32.6663 28.6666H47.3329C47.7009 28.6666 47.9996 28.3687 47.9996 28V27.3334H50.6662C51.0336 27.3334 51.3329 27.632 51.3329 28V55.3334H51.333Z" fill="white"/>
<path d="M40.67 22.6666H39.33C38.5966 22.6666 38 23.2633 38 23.9966V25.3366C38 26.07 38.5966 26.6666 39.33 26.6666H40.67C41.4034 26.6666 42 26.07 42 25.3366V23.9966C42 23.2633 41.4034 22.6666 40.67 22.6666ZM39.3334 25.3366L39.33 24L40.6666 23.9966L40.6673 25.3333L39.3334 25.3366Z" fill="white"/>
</g>
<defs>
<clipPath id="clip0">
<rect width="40" height="40" fill="white" transform="translate(20 20)"/>
</clipPath>
</defs>
</svg>
