<svg width="16" height="16" viewBox="0 0 16 16" fill="none" xmlns="http://www.w3.org/2000/svg">
<path d="M14.125 0H1.875C0.841126 0 0 0.841126 0 1.875V14.125C0 15.1588 0.841126 16 1.875 16H14.125C15.1588 16 16 15.1588 16 14.125V1.875C16 0.841126 15.1588 0 14.125 0ZM14.75 14.125C14.75 14.4696 14.4696 14.75 14.125 14.75H10.5625V9.65626H12.4934L12.8125 7.71872H10.5625V6.375C10.5625 5.84453 10.9695 5.4375 11.5 5.4375H12.7812V3.5H11.5C9.90867 3.5 8.62566 4.78906 8.62566 6.38044V7.71872H6.75002V9.65626H8.62566V14.75H1.875C1.53037 14.75 1.25 14.4696 1.25 14.125V1.875C1.25 1.53037 1.53037 1.25 1.875 1.25H14.125C14.4696 1.25 14.75 1.53037 14.75 1.875V14.125Z" fill="white"/>
</svg>
