<svg width="80" height="80" viewBox="0 0 80 80" fill="none" xmlns="http://www.w3.org/2000/svg">
<path d="M24.6714 29.0489C24.1688 28.6412 23.431 28.7181 23.0231 29.2209C22.5497 29.8047 21.922 30.1261 21.2555 30.1261C20.5889 30.1261 19.9613 29.8045 19.4878 29.2209C19.0802 28.7183 18.342 28.6414 17.8395 29.0489C17.3369 29.4565 17.2598 30.1945 17.6675 30.6972C18.5811 31.8238 19.8889 32.4699 21.2555 32.4699C22.6221 32.4699 23.9297 31.8238 24.8435 30.6972C25.2511 30.1945 25.1741 29.4565 24.6714 29.0489Z" fill="#B41E3C"/>
<path d="M15.8999 22.0918C15.2527 22.0918 14.728 22.6165 14.728 23.2637V24.6026C14.728 25.2498 15.2527 25.7745 15.8999 25.7745C16.5471 25.7745 17.0718 25.2498 17.0718 24.6026V23.2637C17.0718 22.6165 16.5471 22.0918 15.8999 22.0918Z" fill="#B41E3C"/>
<path d="M26.6113 22.0918C25.9641 22.0918 25.4395 22.6165 25.4395 23.2637V24.6026C25.4395 25.2498 25.964 25.7745 26.6113 25.7745C27.2585 25.7745 27.7832 25.2498 27.7832 24.6026V23.2637C27.7832 22.6165 27.2585 22.0918 26.6113 22.0918Z" fill="#B41E3C"/>
<path d="M63.4999 35.7422C62.9973 35.3346 62.2593 35.4115 61.8517 35.9143C61.3782 36.4979 60.7504 36.8194 60.084 36.8194C59.4174 36.8194 58.7898 36.4979 58.3163 35.9143C57.9088 35.4116 57.1707 35.3346 56.668 35.7422C56.1654 36.1499 56.0885 36.8879 56.4962 37.3905C57.4096 38.5173 58.7174 39.1632 60.084 39.1632C61.4506 39.1632 62.7582 38.5171 63.6718 37.3905C64.0795 36.8879 64.0026 36.1499 63.4999 35.7422Z" fill="#B41E3C"/>
<path d="M54.7285 28.7852C54.0813 28.7852 53.5566 29.3098 53.5566 29.957V31.296C53.5566 31.9431 54.0813 32.4678 54.7285 32.4678C55.3757 32.4678 55.9004 31.9431 55.9004 31.296V29.957C55.9004 29.3098 55.3757 28.7852 54.7285 28.7852Z" fill="#B41E3C"/>
<path d="M65.4395 28.7852C64.7923 28.7852 64.2676 29.3098 64.2676 29.957V31.296C64.2676 31.9431 64.7921 32.4678 65.4395 32.4678C66.0867 32.4678 66.6113 31.9431 66.6113 31.296V29.957C66.6113 29.3098 66.0867 28.7852 65.4395 28.7852Z" fill="#B41E3C"/>
<path d="M76.7389 51.9612L67.558 48.2889C67.5084 48.269 67.4624 48.2437 67.4159 48.2193C73.757 46.7765 76.7601 44.3637 76.8934 44.2545C77.2104 43.9946 77.3687 43.588 77.3108 43.1823C77.2975 43.0894 75.9836 33.7861 75.9836 24.6034C75.9836 15.8362 68.8509 8.70347 60.0836 8.70347C51.3164 8.70347 44.1838 15.836 44.1838 24.6034C44.1838 27.0056 44.0748 29.9437 43.8973 32.7252L41.339 34.0044L33.8296 30.2498C33.808 30.2391 33.7854 30.2313 33.7633 30.2219C34.1205 29.1808 34.3541 28.083 34.4399 26.9437C36.0107 26.4584 37.1552 24.9926 37.1552 23.2645C37.1552 22.1006 36.6352 21.0565 35.8163 20.3499V12.553C35.8163 10.3991 34.728 8.38378 32.9433 7.17283C32.3386 4.92595 30.3199 3.34766 27.9499 3.34766H17.2385C11.4244 3.34766 6.69426 8.07784 6.69426 13.8919V20.3498C5.87535 21.0562 5.35534 22.1004 5.35534 23.2643C5.35534 24.9925 6.49988 26.4583 8.07067 26.9436C8.36661 30.8778 10.3941 34.3346 13.3888 36.5593V39.7983L3.69752 42.7057C1.48595 43.3693 0 45.3663 0 47.6754V60.7538C0 61.401 0.524691 61.9256 1.17188 61.9256H1.33891V75.4818C1.33891 76.129 1.8636 76.6537 2.5108 76.6537C3.15799 76.6537 3.68268 76.129 3.68268 75.4818V61.9256H8.03348V75.4818C8.03348 76.129 8.55818 76.6537 9.20537 76.6537C9.85256 76.6537 10.3772 76.129 10.3772 75.4818V55.2755C10.3772 54.2476 10.0758 53.2523 9.50584 52.3973L7.5027 49.3926C7.14363 48.854 6.41598 48.7087 5.87769 49.0675C5.33909 49.4264 5.19362 50.154 5.55269 50.6926L7.55582 53.6975C7.86833 54.1662 8.03364 54.7119 8.03364 55.2755V59.5819H2.5108H2.34376V47.6754C2.34376 46.4093 3.15846 45.3145 4.37128 44.9506L8.39427 43.7437C9.79521 49.6096 15.1157 53.8922 21.2556 53.8922C23.4614 53.8922 25.6036 53.3483 27.5219 52.3133C28.223 53.2697 29.3538 53.8922 30.6278 53.8922H30.7949V54.0592C30.7949 57.9878 32.9561 61.4191 36.1505 63.233V65.1444C36.1505 65.2163 36.1046 65.28 36.0363 65.3029L31.6649 66.7601C29.5428 67.4674 28.117 69.4455 28.117 71.6824V75.4818C28.117 76.129 28.6417 76.6537 29.2889 76.6537C29.9361 76.6537 30.4608 76.129 30.4608 75.4818V71.6824C30.4608 70.456 31.2425 69.3713 32.406 68.9837L33.6914 68.5551C35.3921 71.0913 38.2523 72.6371 41.339 72.6371C44.429 72.6371 47.2865 71.0923 48.9868 68.5552L50.272 68.9837C51.4355 69.3715 52.2172 70.456 52.2172 71.6824V75.4818C52.2172 76.129 52.7419 76.6537 53.3891 76.6537C54.0363 76.6537 54.5609 76.129 54.5609 75.4818V71.6824C54.5609 69.4455 53.1352 67.4674 51.0131 66.7602L46.6417 65.303C46.5734 65.2802 46.5275 65.2166 46.5275 65.1446V63.2332C48.9192 61.875 50.7295 59.61 51.4889 56.908C53.7034 59.2252 56.7964 60.5871 60.0835 60.5871C65.2729 60.5871 69.8262 57.2325 71.3946 52.3483L75.8679 54.1375C76.9544 54.572 77.6562 55.6089 77.6562 56.7787V62.2599H77.4892H73.3054V60.7539C73.3054 60.1067 72.7807 59.582 72.1335 59.582C71.4864 59.582 70.9617 60.1067 70.9617 60.7539V75.482C70.9617 76.1292 71.4864 76.6539 72.1335 76.6539C72.7807 76.6539 73.3054 76.1292 73.3054 75.482V64.6036H76.3173V75.482C76.3173 76.1292 76.842 76.6539 77.4892 76.6539C78.1364 76.6539 78.6611 76.1292 78.6611 75.482V64.6036H78.8281C79.1389 64.6036 79.4369 64.4802 79.6567 64.2605C79.8766 64.0407 80 63.7427 80 63.4318V56.7787C80.0005 54.6447 78.7203 52.7537 76.7389 51.9612ZM46.5278 24.6032C46.5278 17.1284 52.6091 11.0471 60.0839 11.0471C67.5588 11.0471 73.64 17.1284 73.64 24.6032C73.64 32.4725 74.5876 40.4274 74.8956 42.8032C73.8454 43.4902 71.1567 45.0034 66.6115 45.9977V44.1329C67.234 43.7801 67.8299 43.3774 68.3902 42.9246C70.6962 41.0607 72.3257 38.4502 72.9782 35.5743C73.1957 34.616 73.3061 33.6277 73.3061 32.6369C73.3061 26.0133 68.5159 25.0623 63.8833 24.1426C60.9357 23.5575 57.8877 22.9523 55.4605 21.0106C55.1088 20.7292 54.6269 20.6743 54.2208 20.8695C53.8147 21.0646 53.5566 21.4751 53.5566 21.9257C53.5566 21.9568 53.5055 25.0403 49.0886 26.1445C48.4606 26.3015 48.0789 26.9378 48.2359 27.5658C48.3928 28.1937 49.0292 28.5751 49.657 28.4184C53.3539 27.4942 54.862 25.4203 55.477 23.8622C58.0183 25.3681 60.865 25.9331 63.4269 26.4417C68.3784 27.4247 70.9623 28.1467 70.9623 32.637C70.9623 33.4536 70.8715 34.2674 70.6926 35.0558C70.1559 37.4205 68.8151 39.5677 66.9168 41.1021C64.9637 42.6809 62.6008 43.5152 60.0839 43.5152C57.7896 43.5152 55.6059 42.8115 53.7528 41.4816C53.0739 39.6287 51.9834 37.9333 50.5445 36.5364V31.2981C50.5445 30.8919 50.3342 30.5147 49.9887 30.3013C49.6433 30.0878 49.212 30.0683 48.8486 30.25L46.3184 31.515C46.4571 29.0745 46.5278 26.7542 46.5278 24.6032ZM48.2007 33.1939V37.435L43.9595 35.3146L48.2007 33.1939ZM34.4775 33.1939L38.7187 35.3146L34.4775 37.435V33.1939ZM28.117 46.0257V47.1387C27.278 47.8632 26.7781 48.9235 26.7781 50.0423C25.1091 51.0284 23.2129 51.5484 21.2554 51.5484C16.1579 51.5484 11.7477 47.9612 10.6444 43.0687L13.5396 42.2001C14.2538 45.8076 17.4415 48.5365 21.2556 48.5365C24.2842 48.5365 26.9167 46.8151 28.2308 44.3002C28.1556 44.8693 28.117 45.4456 28.117 46.0257ZM15.7329 40.6682V37.9536C17.4145 38.7302 19.2851 39.1641 21.2556 39.1641C23.2259 39.1641 25.0967 38.73 26.7783 37.9538V40.6699C26.7783 43.7151 24.3009 46.1926 21.2556 46.1926C18.2154 46.1926 15.7415 43.7232 15.7332 40.6849C15.7332 40.6793 15.7329 40.6737 15.7329 40.6682ZM21.2556 36.8204C15.2571 36.8204 10.3772 31.9405 10.3772 25.9422C10.3772 25.295 9.85256 24.7703 9.20537 24.7703C8.37505 24.7703 7.69942 24.0947 7.69942 23.2643C7.69942 22.434 8.37489 21.7584 9.20537 21.7584H11.8832C12.3876 21.7584 12.8354 21.4357 12.9949 20.9571L14.0706 17.7302C16.7635 17.6695 25.1119 17.2909 29.813 14.9402C30.3919 14.6507 30.6266 13.9469 30.3371 13.368C30.0477 12.7891 29.3439 12.5544 28.7649 12.844C23.7209 15.3659 13.3262 15.398 13.2218 15.398C12.7174 15.3982 12.2696 15.7209 12.1102 16.1994L11.0385 19.4148H9.20537C9.14943 19.4148 9.0938 19.4167 9.03833 19.419V13.8919C9.03833 9.37019 12.7171 5.69142 17.2389 5.69142H27.9502C29.3495 5.69142 30.5252 6.70002 30.746 8.0894C30.8021 8.44253 31.0163 8.75066 31.3277 8.92628C32.6508 9.67254 33.4729 11.0621 33.4729 12.5529V19.4187C33.4174 19.4162 33.3619 19.4145 33.3058 19.4145H31.9669C31.3197 19.4145 30.795 19.9392 30.795 20.5863C30.795 21.2335 31.3197 21.7582 31.9669 21.7582H33.3058C34.1361 21.7582 34.8118 22.4337 34.8118 23.2642C34.8118 24.0947 34.1363 24.7701 33.3058 24.7701C32.6586 24.7701 32.1339 25.2948 32.1339 25.942C32.1339 31.9403 27.2541 36.8204 21.2556 36.8204ZM29.1219 40.6702V36.5593C30.2877 35.6932 31.3066 34.6411 32.1338 33.4455V36.5363C30.8214 37.8104 29.7985 39.3324 29.1136 40.9962C29.1181 40.8879 29.1219 40.7794 29.1219 40.6702ZM46.6484 67.7755C45.3582 69.3516 43.4201 70.2932 41.3391 70.2932C39.2607 70.2932 37.3213 69.351 36.0307 67.7754L36.7776 67.5265C37.8044 67.1843 38.4944 66.2269 38.4944 65.1446V64.2105C39.4001 64.4647 40.3535 64.6036 41.3393 64.6036C42.3251 64.6036 43.2785 64.4647 44.1842 64.2105V65.1446C44.184 66.2268 44.8739 67.1841 45.9009 67.5263L46.6484 67.7755ZM50.7117 51.5484C50.0645 51.5484 49.5398 52.0731 49.5398 52.7203V53.8854C49.5398 53.8956 49.5397 53.9058 49.5398 53.9159V54.0592C49.5397 58.5809 45.8609 62.2597 41.3391 62.2597C36.8174 62.2597 33.1388 58.5809 33.1388 54.0592V52.7203C33.1388 52.0731 32.6141 51.5484 31.9669 51.5484H30.628C29.7977 51.5484 29.122 50.8729 29.122 50.0425C29.122 49.5081 29.4049 49.0245 29.8785 48.7489C29.9842 48.6873 30.0763 48.6093 30.156 48.5212C33.0528 48.4373 42.4434 47.8921 48.6151 44.3654C49.177 44.0443 49.3723 43.3285 49.0512 42.7665C48.7301 42.2044 48.014 42.0093 47.4523 42.3304C42.0457 45.4198 33.55 46.0384 30.461 46.162V46.0257C30.461 43.8462 31.121 41.7354 32.3169 39.9558C32.4105 40.1041 32.5357 40.2329 32.6897 40.328C32.878 40.4443 33.0916 40.503 33.3058 40.503C33.4849 40.503 33.6644 40.4619 33.8299 40.3793L41.3393 36.6246L48.8487 40.3793C49.0142 40.4619 49.1937 40.503 49.3728 40.503C49.5872 40.503 49.8008 40.4443 49.9889 40.328C50.1428 40.2329 50.268 40.104 50.3615 39.9558C51.5575 41.7354 52.2175 43.8462 52.2175 46.0257V47.736C52.2175 48.1532 52.4392 48.539 52.8 48.7489C53.2737 49.0246 53.5566 49.5081 53.5566 50.0425C53.5566 50.8728 52.8809 51.5484 52.0506 51.5484H50.7117ZM60.0839 58.243C56.8396 58.243 53.8295 56.5912 52.0773 53.8915C54.1877 53.877 55.9002 52.1562 55.9002 50.0426C55.9002 48.9239 55.4003 47.8634 54.5613 47.1388V46.0259C54.5613 45.5541 54.5358 45.0851 54.4859 44.6204C56.2236 45.4351 58.1208 45.8587 60.0839 45.8587C61.5129 45.8587 62.926 45.622 64.2677 45.1745V46.8906C64.2677 48.4739 65.2176 49.877 66.6876 50.465L69.2146 51.4757C68.0035 55.4801 64.3051 58.243 60.0839 58.243Z" fill="#B41E3C"/>
<path d="M44.7554 55.8262C44.2528 55.4186 43.5148 55.4954 43.1071 55.9983C42.6335 56.582 42.0059 56.9034 41.3395 56.9034C40.673 56.9034 40.0452 56.582 39.5718 55.9983C39.1641 55.4956 38.426 55.4186 37.9235 55.8262C37.4208 56.2339 37.3438 56.9719 37.7515 57.4745C38.6652 58.601 39.9729 59.2472 41.3395 59.2472C42.706 59.2472 44.0137 58.6011 44.9274 57.4747C45.3349 56.972 45.2579 56.2339 44.7554 55.8262Z" fill="#B41E3C"/>
<path d="M37.3438 52.5566C37.991 52.5566 38.5156 52.032 38.5156 51.3848C38.5156 50.7376 37.991 50.2129 37.3438 50.2129C36.6965 50.2129 36.1719 50.7376 36.1719 51.3848C36.1719 52.032 36.6965 52.5566 37.3438 52.5566Z" fill="#B41E3C"/>
<path d="M45.313 52.5566C45.9602 52.5566 46.4849 52.032 46.4849 51.3848C46.4849 50.7376 45.9602 50.2129 45.313 50.2129C44.6658 50.2129 44.1411 50.7376 44.1411 51.3848C44.1411 52.032 44.6658 52.5566 45.313 52.5566Z" fill="#B41E3C"/>
</svg>
