<svg width="80" height="80" viewBox="0 0 80 80" fill="none" xmlns="http://www.w3.org/2000/svg">
<path d="M4.91846 44.5842V61.4342C4.91846 63.3624 6.48096 64.9249 8.40908 64.9249C10.3372 64.9249 11.8997 63.3624 11.8997 61.4342V44.5842H4.91846Z" fill="#BB031C"/>
<path d="M16.8144 48.0926H9.79154C5.32186 48.0926 1.69873 44.4695 1.69873 39.9998C1.69873 35.5301 5.32186 31.907 9.79154 31.907H16.8147V48.0926H16.8144Z" fill="#BB031C"/>
<path d="M48.2819 22.4265V57.5737C48.2819 58.8793 46.7875 59.6337 45.7469 58.8449C36.59 51.9037 31.5728 48.0931 19.9609 48.0931H16.8159V31.9074H19.9609C31.5728 31.9074 36.5897 28.0965 45.7469 21.1556C46.7875 20.3665 48.2819 21.1209 48.2819 22.4265V22.4265Z" fill="#BB031C"/>
<path d="M14.4783 48.0938H9.79082C5.32207 48.0938 1.7002 44.4688 1.7002 40C1.7002 37.7656 2.60645 35.7438 4.06895 34.2781C5.53457 32.8125 7.55645 31.9062 9.79082 31.9062H14.4783C12.2439 31.9062 10.2221 32.8125 8.75645 34.2781C7.29395 35.7438 6.3877 37.7656 6.3877 40C6.3877 44.4688 10.0096 48.0938 14.4783 48.0938Z" fill="#BB031C"/>
<path d="M48.2812 22.4247V57.5748C48.2812 58.8779 46.7875 59.6341 45.7469 58.8435C45.0031 58.281 44.2875 57.7373 43.5938 57.2185V22.781C44.2875 22.2622 45.0031 21.7185 45.7469 21.156C46.7875 20.3654 48.2812 21.1216 48.2812 22.4247V22.4247Z" fill="#BB031C"/>
<path d="M53.3218 31.6936H78.2999V48.3061H53.3218V31.6936Z" fill="#BB031C"/>
<path d="M53.3218 31.6936H58.0093V48.3061H53.3218V31.6936Z" fill="#BB031C"/>
<path d="M78.2999 31.6936L65.8124 39.9999L53.3218 31.6936H78.2999Z" fill="#BB031C"/>
<path d="M44.9669 20.178C35.7622 27.1552 31.1422 30.6571 19.9613 30.6571C19.8619 30.6571 16.7163 30.6571 16.8153 30.6571C16.1741 30.6571 11.1175 30.6571 9.79159 30.6571C1.17315 30.6571 -2.8331 41.3914 3.66877 47.0477V61.4343C3.66877 64.0483 5.79534 66.1749 8.4094 66.1749C11.0235 66.1749 13.15 64.0483 13.15 61.4343V49.3427C28.9385 49.3427 30.7635 49.0827 44.9919 59.8408C46.8538 61.2521 49.5319 59.9121 49.5319 57.5736V22.4264C49.5319 20.1174 46.8903 18.7236 44.9669 20.178ZM10.65 61.4343C10.65 62.6699 9.64502 63.6749 8.4094 63.6749C7.17377 63.6749 6.16877 62.6699 6.16877 61.4343V48.6114C8.07752 49.4174 9.5669 49.3427 10.65 49.3427V61.4343ZM15.5647 46.8427H9.79159C6.01846 46.8427 2.94877 43.773 2.94877 39.9999C2.94877 36.2268 6.01846 33.1571 9.79159 33.1571H15.5647V46.8427ZM47.0319 57.5736C47.0319 57.833 46.7453 58.033 46.4769 57.8296C35.3922 49.4274 31.4613 46.8427 18.066 46.8427V33.1571C31.5119 33.1571 35.4078 30.5558 46.5022 22.1511C46.7207 21.9858 47.0319 22.1511 47.0319 22.4261V57.5736Z" fill="white"/>
<path d="M78.3037 30.4437C78.3027 30.4437 78.3018 30.4434 78.3006 30.4434C78.2027 30.4434 53.3174 30.4437 53.3174 30.4437C52.9249 30.4449 52.493 30.6515 52.2521 31.0527C51.9005 31.6374 52.0702 31.573 52.0702 48.3068C52.0702 48.9971 52.6299 49.5568 53.3202 49.5568H78.3006C78.9909 49.5568 79.5506 48.9971 79.5506 48.3068V31.7027C79.5506 31.7018 79.5506 31.7009 79.5506 31.6999V31.6934C79.5506 31.0037 78.9902 30.4459 78.3037 30.4437V30.4437ZM74.164 32.9434L65.8106 38.499L57.4571 32.9434H74.164ZM54.5705 34.0259L59.3515 37.2056L54.5705 44.5609V34.0259ZM55.9302 47.0568L61.4334 38.5902L65.118 41.0409C65.5377 41.3199 66.083 41.3199 66.5027 41.0409L70.1874 38.5902L75.6906 47.0568H55.9302ZM77.0506 44.5609L72.2696 37.2056L77.0506 34.0259V44.5609Z" fill="white"/>
<path d="M54.0075 21.5306L76.924 6.46556C77.5009 6.0865 77.6612 5.3115 77.2819 4.73431C76.9028 4.15744 76.1275 3.99681 75.5506 4.3765L52.6343 19.4418C52.0574 19.8209 51.8971 20.5959 52.2765 21.1731C52.6553 21.7496 53.4306 21.91 54.0075 21.5306V21.5306Z" fill="white"/>
<path d="M72.5983 15.8757L52.8067 24.8016C52.1774 25.0854 51.8974 25.8257 52.1811 26.4551C52.4652 27.0847 53.2058 27.3644 53.8346 27.0807L73.6261 18.1548C74.2555 17.871 74.5355 17.1307 74.2517 16.5013C73.968 15.8719 73.228 15.5919 72.5983 15.8757V15.8757Z" fill="white"/>
<path d="M76.9238 73.5346L54.0073 58.4696C53.4301 58.0902 52.6551 58.2506 52.276 58.8274C51.8966 59.4043 52.057 60.1793 52.6338 60.5587L75.5504 75.6237C76.1273 76.0031 76.9026 75.8428 77.2816 75.2659C77.661 74.6887 77.5007 73.9137 76.9238 73.5346Z" fill="white"/>
<path d="M52.8072 55.1982C74.2328 64.8613 72.7228 64.235 73.1119 64.235C74.4528 64.235 74.85 62.3969 73.6266 61.8453L53.835 52.9194C53.2059 52.6356 52.4653 52.9156 52.1816 53.545C51.8978 54.1744 52.1781 54.9144 52.8072 55.1982V55.1982Z" fill="white"/>
<path d="M39.173 30.7562C38.4248 31.4165 37.5367 32.0368 36.5329 32.5996C35.9308 32.9371 35.7164 33.699 36.0539 34.3012C36.2829 34.7099 36.7076 34.9399 37.1451 34.9399C37.3523 34.9399 37.562 34.8884 37.7555 34.7799C38.9136 34.1309 39.947 33.4074 40.8276 32.6303C41.3451 32.1734 41.3942 31.3834 40.9373 30.8659C40.4801 30.3481 39.6905 30.2993 39.173 30.7562Z" fill="white"/>
<path d="M32.4516 34.3772C29.0457 35.5248 26.0485 35.8426 26.0188 35.846C25.3322 35.9163 24.8325 36.5294 24.9025 37.216C24.9682 37.8598 25.5113 38.3394 26.1447 38.3394C26.1869 38.3394 26.2297 38.3373 26.2728 38.3329C26.4057 38.3194 29.5657 37.9879 33.2504 36.7463C33.9044 36.526 34.2563 35.8169 34.0357 35.1626C33.815 34.5085 33.1063 34.1569 32.4516 34.3772V34.3772Z" fill="white"/>
</svg>
