<svg width="80" height="80" viewBox="0 0 80 80" fill="none" xmlns="http://www.w3.org/2000/svg">
<path d="M68.8955 69.1808C69.5428 69.1808 70.0673 68.6561 70.0673 68.009C70.0673 65.3042 70.0673 10.1558 70.0673 7.80429H74.4227C76.2346 7.80429 77.7087 6.33011 77.7087 4.5183V3.28615C77.7087 1.47417 76.2346 0 74.4227 0H42.7341C42.0868 0 41.5623 0.524671 41.5623 1.17184C41.5623 1.81901 42.0868 2.34368 42.7341 2.34368H67.7237V5.46061H12.276V2.34368H37.2655C37.9129 2.34368 38.4374 1.81901 38.4374 1.17184C38.4374 0.524671 37.9129 0 37.2655 0H5.57701C3.76503 0 2.29102 1.47417 2.29102 3.28615V4.5183C2.29102 6.33027 3.76519 7.80429 5.57701 7.80429H9.93234V77.3929C9.93234 79.4161 12.1345 80.6633 13.8692 79.6275L39.9997 64.0252L66.1303 79.6275C67.8655 80.6639 70.0672 79.415 70.0672 77.3929V73.4776C70.0672 72.8304 69.5427 72.3057 68.8953 72.3057C68.248 72.3057 67.7235 72.8304 67.7235 73.4776V77.3929C67.7235 77.5957 67.5059 77.7191 67.3316 77.6152L44.2483 63.8324H67.7237V68.009C67.7237 68.6561 68.2483 69.1808 68.8955 69.1808V69.1808ZM70.0673 2.34368H74.4227C74.9422 2.34368 75.365 2.76648 75.365 3.28615V4.5183C75.365 5.03797 74.9422 5.46061 74.4227 5.46061H70.0673V2.34368ZM9.93234 5.46061H5.57701C5.05749 5.46061 4.63469 5.03781 4.63469 4.5183V3.28615C4.63469 2.76648 5.05749 2.34368 5.57701 2.34368H9.93234V5.46061ZM67.7237 50.2831H43.4602C46.0017 47.7373 49.7472 43.9853 52.307 41.4212H67.7237V50.2831ZM41.4957 27.7709L42.1268 27.1676C44.9036 24.523 48.5214 24.3333 51.1625 25.7612C55.3881 28.046 56.2714 33.7335 53.1329 37.2582C52.8952 37.5238 54.001 36.4068 40.2965 50.1348L40.2717 50.1597C40.1647 50.267 40.0397 50.2831 39.9744 50.2831H39.9742C39.9091 50.2831 39.7837 50.2669 39.6767 50.1592C26.3281 36.7332 26.9895 37.4223 26.6471 37.001C22.7619 32.2173 26.0336 24.8778 32.3727 24.8778C34.4411 24.8778 36.4282 25.7233 37.854 27.149L37.8565 27.1467C37.9897 27.282 38.5041 27.7709 38.5041 27.7709C39.3428 28.573 40.6572 28.5729 41.4957 27.7709V27.7709ZM67.7237 39.0775H54.6438C56.932 36.69 57.8346 33.3416 57.1501 30.2156H67.7237V39.0775ZM12.276 7.80429H67.7237V16.6662H12.276V7.80429ZM12.276 19.0099H67.7237V27.8718H56.3228C53.2343 21.7612 45.1833 20.8095 40.4978 25.4823L39.9997 25.9586C39.2613 25.2525 39.1414 25.1247 38.7633 24.8164C37.0426 23.4121 34.8478 22.5748 32.5398 22.5384C28.6303 22.4718 25.31 24.6405 23.6766 27.8719H12.276V19.0099ZM12.276 30.2155H22.8496C22.1441 33.4927 23.1524 36.7784 25.3559 39.0774H12.276V30.2155ZM12.276 41.4212H27.6838L36.4948 50.2831H12.276V41.4212ZM12.6679 77.6152C12.4932 77.7196 12.276 77.5951 12.276 77.3929V63.8324H35.7512L12.6679 77.6152ZM39.9998 61.4887H12.276V52.6268H67.7237V61.4887H39.9998Z" fill="#B41E3C"/>
</svg>
