<svg width="80" height="80" viewBox="0 0 80 80" fill="none" xmlns="http://www.w3.org/2000/svg">
<circle cx="40" cy="40" r="40" fill="#B41E3C"/>
<path d="M59.3333 56.6667H55.3333V34.6667C55.3333 34.2985 55.0348 34 54.6667 34H45.3333V18.6667C45.3333 18.2985 45.0348 18 44.6667 18H27.3333C26.9652 18 26.6667 18.2985 26.6667 18.6667V56.6667H20.6667C20.2985 56.6667 20 56.9652 20 57.3333C20 57.7015 20.2985 58 20.6667 58H59.3333C59.7015 58 60 57.7015 60 57.3333C60 56.9652 59.7015 56.6667 59.3333 56.6667ZM34 56.6667H31.3333V50.6667C31.3333 50.2985 31.6318 50 32 50H33.3333C33.7015 50 34 50.2985 34 50.6667V56.6667ZM36.6667 34.6667V56.6667H35.3333V50.6667C35.3333 49.5621 34.4379 48.6667 33.3333 48.6667H32C30.8954 48.6667 30 49.5621 30 50.6667V56.6667H28V19.3333H44V34H37.3333C36.9652 34 36.6667 34.2985 36.6667 34.6667ZM54 56.6667H38V35.3333H54V56.6667Z" fill="white"/>
<path d="M41.3337 27.3333H37.3337C36.9655 27.3333 36.667 27.6318 36.667 28V32C36.667 32.3681 36.9655 32.6666 37.3337 32.6666H41.3337C41.7018 32.6666 42.0003 32.3681 42.0003 32V28C42.0003 27.6318 41.7018 27.3333 41.3337 27.3333ZM40.667 31.3333H38.0003V28.6666H40.667V31.3333Z" fill="white"/>
<path d="M41.3337 20.6667H37.3337C36.9655 20.6667 36.667 20.9652 36.667 21.3334V25.3334C36.667 25.7015 36.9655 26 37.3337 26H41.3337C41.7018 26 42.0003 25.7015 42.0003 25.3334V21.3334C42.0003 20.9652 41.7018 20.6667 41.3337 20.6667ZM40.667 24.6667H38.0003V22H40.667V24.6667Z" fill="white"/>
<path d="M34.6667 27.3333H30.6667C30.2985 27.3333 30 27.6318 30 28V32C30 32.3681 30.2985 32.6666 30.6667 32.6666H34.6667C35.0348 32.6666 35.3333 32.3681 35.3333 32V28C35.3333 27.6318 35.0348 27.3333 34.6667 27.3333ZM34 31.3333H31.3333V28.6666H34V31.3333Z" fill="white"/>
<path d="M34.6667 20.6667H30.6667C30.2985 20.6667 30 20.9652 30 21.3334V25.3334C30 25.7015 30.2985 26 30.6667 26H34.6667C35.0348 26 35.3333 25.7015 35.3333 25.3334V21.3334C35.3333 20.9652 35.0348 20.6667 34.6667 20.6667ZM34 24.6667H31.3333V22H34V24.6667Z" fill="white"/>
<path d="M34.6667 34H30.6667C30.2985 34 30 34.2985 30 34.6667V38.6667C30 39.0348 30.2985 39.3333 30.6667 39.3333H34.6667C35.0348 39.3333 35.3333 39.0348 35.3333 38.6667V34.6667C35.3333 34.2985 35.0348 34 34.6667 34ZM34 38H31.3333V35.3333H34V38Z" fill="white"/>
<path d="M34.6667 40.6667H30.6667C30.2985 40.6667 30 40.9652 30 41.3334V45.3334C30 45.7015 30.2985 46 30.6667 46H34.6667C35.0348 46 35.3333 45.7015 35.3333 45.3334V41.3334C35.3333 40.9652 35.0348 40.6667 34.6667 40.6667ZM34 44.6667H31.3333V42H34V44.6667Z" fill="white"/>
<path d="M47.3337 48.6667H51.3337C51.7018 48.6667 52.0003 48.3682 52.0003 48V44C52.0003 43.6318 51.7018 43.3333 51.3337 43.3333H47.3337C46.9655 43.3333 46.667 43.6318 46.667 44V48C46.667 48.3682 46.9655 48.6667 47.3337 48.6667ZM48.0003 44.6666H50.667V47.3333H48.0003V44.6666Z" fill="white"/>
<path d="M47.3337 42H51.3337C51.7018 42 52.0003 41.7015 52.0003 41.3334V37.3334C52.0003 36.9652 51.7018 36.6667 51.3337 36.6667H47.3337C46.9655 36.6667 46.667 36.9652 46.667 37.3334V41.3334C46.667 41.7015 46.9655 42 47.3337 42ZM48.0003 38H50.667V40.6667H48.0003V38Z" fill="white"/>
<path d="M47.3337 55.3333H51.3337C51.7018 55.3333 52.0003 55.0348 52.0003 54.6667V50.6667C52.0003 50.2985 51.7018 50 51.3337 50H47.3337C46.9655 50 46.667 50.2985 46.667 50.6667V54.6667C46.667 55.0348 46.9655 55.3333 47.3337 55.3333ZM48.0003 51.3333H50.667V54H48.0003V51.3333Z" fill="white"/>
<path d="M40.6667 48.6667H44.6667C45.0348 48.6667 45.3333 48.3682 45.3333 48V44C45.3333 43.6318 45.0348 43.3333 44.6667 43.3333H40.6667C40.2985 43.3333 40 43.6318 40 44V48C40 48.3682 40.2985 48.6667 40.6667 48.6667ZM41.3333 44.6666H44V47.3333H41.3333V44.6666Z" fill="white"/>
<path d="M40.6667 42H44.6667C45.0348 42 45.3333 41.7015 45.3333 41.3334V37.3334C45.3333 36.9652 45.0348 36.6667 44.6667 36.6667H40.6667C40.2985 36.6667 40 36.9652 40 37.3334V41.3334C40 41.7015 40.2985 42 40.6667 42ZM41.3333 38H44V40.6667H41.3333V38Z" fill="white"/>
<path d="M40.6667 55.3333H44.6667C45.0348 55.3333 45.3333 55.0348 45.3333 54.6667V50.6667C45.3333 50.2985 45.0348 50 44.6667 50H40.6667C40.2985 50 40 50.2985 40 50.6667V54.6667C40 55.0348 40.2985 55.3333 40.6667 55.3333ZM41.3333 51.3333H44V54H41.3333V51.3333Z" fill="white"/>
</svg>
