<svg width="80" height="80" viewBox="0 0 80 80" fill="none" xmlns="http://www.w3.org/2000/svg">
<path d="M78.6667 77.3333H70.6667V33.3333C70.6667 32.597 70.0697 32 69.3333 32H50.6667V1.33333C50.6667 0.597 50.0697 0 49.3333 0H14.6667C13.9303 0 13.3333 0.597 13.3333 1.33333V77.3333H1.33333C0.597 77.3333 0 77.9303 0 78.6667C0 79.403 0.597 80 1.33333 80H78.6667C79.403 80 80 79.403 80 78.6667C80 77.9303 79.403 77.3333 78.6667 77.3333ZM28 77.3333H22.6667V65.3333C22.6667 64.597 23.2637 64 24 64H26.6667C27.403 64 28 64.597 28 65.3333V77.3333ZM33.3333 33.3333V77.3333H30.6667V65.3333C30.6667 63.1242 28.8758 61.3333 26.6667 61.3333H24C21.7908 61.3333 20 63.1242 20 65.3333V77.3333H16V2.66667H48V32H34.6667C33.9303 32 33.3333 32.597 33.3333 33.3333ZM68 77.3333H36V34.6667H68V77.3333Z" fill="#B41E3C"/>
<path d="M42.6663 18.6667H34.6663C33.93 18.6667 33.333 19.2637 33.333 20V28C33.333 28.7363 33.93 29.3333 34.6663 29.3333H42.6663C43.4027 29.3333 43.9997 28.7363 43.9997 28V20C43.9997 19.2637 43.4027 18.6667 42.6663 18.6667ZM41.333 26.6667H35.9997V21.3333H41.333V26.6667Z" fill="#B41E3C"/>
<path d="M42.6663 5.33333H34.6663C33.93 5.33333 33.333 5.93033 33.333 6.66666V14.6667C33.333 15.403 33.93 16 34.6663 16H42.6663C43.4027 16 43.9997 15.403 43.9997 14.6667V6.66666C43.9997 5.93033 43.4027 5.33333 42.6663 5.33333ZM41.333 13.3333H35.9997V7.99999H41.333V13.3333Z" fill="#B41E3C"/>
<path d="M29.3333 18.6667H21.3333C20.597 18.6667 20 19.2637 20 20V28C20 28.7363 20.597 29.3333 21.3333 29.3333H29.3333C30.0697 29.3333 30.6667 28.7363 30.6667 28V20C30.6667 19.2637 30.0697 18.6667 29.3333 18.6667ZM28 26.6667H22.6667V21.3333H28V26.6667Z" fill="#B41E3C"/>
<path d="M29.3333 5.33333H21.3333C20.597 5.33333 20 5.93033 20 6.66666V14.6667C20 15.403 20.597 16 21.3333 16H29.3333C30.0697 16 30.6667 15.403 30.6667 14.6667V6.66666C30.6667 5.93033 30.0697 5.33333 29.3333 5.33333ZM28 13.3333H22.6667V7.99999H28V13.3333Z" fill="#B41E3C"/>
<path d="M29.3333 32H21.3333C20.597 32 20 32.597 20 33.3333V41.3333C20 42.0697 20.597 42.6667 21.3333 42.6667H29.3333C30.0697 42.6667 30.6667 42.0697 30.6667 41.3333V33.3333C30.6667 32.597 30.0697 32 29.3333 32ZM28 40H22.6667V34.6667H28V40Z" fill="#B41E3C"/>
<path d="M29.3333 45.3333H21.3333C20.597 45.3333 20 45.9303 20 46.6667V54.6667C20 55.403 20.597 56 21.3333 56H29.3333C30.0697 56 30.6667 55.403 30.6667 54.6667V46.6667C30.6667 45.9303 30.0697 45.3333 29.3333 45.3333ZM28 53.3333H22.6667V48H28V53.3333Z" fill="#B41E3C"/>
<path d="M54.6663 61.3333H62.6663C63.4027 61.3333 63.9997 60.7363 63.9997 60V52C63.9997 51.2637 63.4027 50.6667 62.6663 50.6667H54.6663C53.93 50.6667 53.333 51.2637 53.333 52V60C53.333 60.7363 53.93 61.3333 54.6663 61.3333ZM55.9997 53.3333H61.333V58.6667H55.9997V53.3333Z" fill="#B41E3C"/>
<path d="M54.6663 48H62.6663C63.4027 48 63.9997 47.403 63.9997 46.6667V38.6667C63.9997 37.9303 63.4027 37.3333 62.6663 37.3333H54.6663C53.93 37.3333 53.333 37.9303 53.333 38.6667V46.6667C53.333 47.403 53.93 48 54.6663 48ZM55.9997 40H61.333V45.3333H55.9997V40Z" fill="#B41E3C"/>
<path d="M54.6663 74.6667H62.6663C63.4027 74.6667 63.9997 74.0697 63.9997 73.3333V65.3333C63.9997 64.597 63.4027 64 62.6663 64H54.6663C53.93 64 53.333 64.597 53.333 65.3333V73.3333C53.333 74.0697 53.93 74.6667 54.6663 74.6667ZM55.9997 66.6667H61.333V72H55.9997V66.6667Z" fill="#B41E3C"/>
<path d="M41.3333 61.3333H49.3333C50.0697 61.3333 50.6667 60.7363 50.6667 60V52C50.6667 51.2637 50.0697 50.6667 49.3333 50.6667H41.3333C40.597 50.6667 40 51.2637 40 52V60C40 60.7363 40.597 61.3333 41.3333 61.3333ZM42.6667 53.3333H48V58.6667H42.6667V53.3333Z" fill="#B41E3C"/>
<path d="M41.3333 48H49.3333C50.0697 48 50.6667 47.403 50.6667 46.6667V38.6667C50.6667 37.9303 50.0697 37.3333 49.3333 37.3333H41.3333C40.597 37.3333 40 37.9303 40 38.6667V46.6667C40 47.403 40.597 48 41.3333 48ZM42.6667 40H48V45.3333H42.6667V40Z" fill="#B41E3C"/>
<path d="M41.3333 74.6667H49.3333C50.0697 74.6667 50.6667 74.0697 50.6667 73.3333V65.3333C50.6667 64.597 50.0697 64 49.3333 64H41.3333C40.597 64 40 64.597 40 65.3333V73.3333C40 74.0697 40.597 74.6667 41.3333 74.6667ZM42.6667 66.6667H48V72H42.6667V66.6667Z" fill="#B41E3C"/>
</svg>
