<svg width="16" height="16" viewBox="0 0 16 16" fill="none" xmlns="http://www.w3.org/2000/svg">
<path d="M2.34375 16H13.6562C14.9486 16 16 14.9486 16 13.6562V2.34375C16 1.05139 14.9486 0 13.6562 0H2.34375C1.05139 0 0 1.05139 0 2.34375V13.6562C0 14.9486 1.05139 16 2.34375 16ZM0.937504 2.34375C0.937504 1.56836 1.56836 0.937504 2.34375 0.937504H13.6562C14.4317 0.937504 15.0625 1.56836 15.0625 2.34375V13.6562C15.0625 14.4317 14.4317 15.0625 13.6562 15.0625H2.34375C1.56836 15.0625 0.937504 14.4317 0.937504 13.6562V2.34375Z" fill="white"/>
<path d="M8 12.2187C10.3262 12.2187 12.2187 10.3262 12.2187 8C12.2187 5.67383 10.3262 3.78125 8 3.78125C5.67383 3.78125 3.78125 5.67383 3.78125 8C3.78125 10.3262 5.67383 12.2187 8 12.2187ZM8 4.71875C9.80936 4.71875 11.2813 6.19067 11.2813 8C11.2813 9.80936 9.80936 11.2813 8 11.2813C6.19067 11.2813 4.71875 9.80936 4.71875 8C4.71875 6.19067 6.19067 4.71875 8 4.71875Z" fill="white"/>
<path d="M12.6875 4.71875C13.4628 4.71875 14.0937 4.08789 14.0937 3.3125C14.0937 2.53711 13.4628 1.90625 12.6875 1.90625C11.912 1.90625 11.2812 2.53711 11.2812 3.3125C11.2812 4.08789 11.912 4.71875 12.6875 4.71875ZM12.6875 2.84375C12.9459 2.84375 13.1562 3.05408 13.1562 3.3125C13.1562 3.57092 12.9459 3.78125 12.6875 3.78125C12.429 3.78125 12.2187 3.57092 12.2187 3.3125C12.2187 3.05408 12.429 2.84375 12.6875 2.84375Z" fill="white"/>
</svg>
