<svg width="25" height="25" viewBox="0 0 25 25" fill="none" xmlns="http://www.w3.org/2000/svg">
<g clip-path="url(#clip0)">
<path d="M7.81288 20.6543H4.39491V9.61914H7.81288V20.6543ZM8.15392 6.10332C8.15392 4.9984 7.25746 4.10156 6.15311 4.10156C5.04456 4.10156 4.15039 4.9984 4.15039 6.10332C4.15039 7.20863 5.04456 8.10547 6.15311 8.10547C7.25746 8.10547 8.15392 7.20863 8.15392 6.10332ZM20.6055 14.5832C20.6055 11.6209 19.9797 9.42383 16.5192 9.42383C14.8563 9.42383 13.7402 10.2554 13.2845 11.1202H13.2812V9.61914H9.96094V20.6543H13.2812V15.1752C13.2812 13.7403 13.6465 12.3503 15.4251 12.3503C17.1795 12.3503 17.2363 13.9912 17.2363 15.2664V20.6543H20.6055V14.5832ZM25 22.0703V2.92969C25 1.31416 23.6858 0 22.0703 0H2.92969C1.31416 0 0 1.31416 0 2.92969V22.0703C0 23.6858 1.31416 25 2.92969 25H22.0703C23.6858 25 25 23.6858 25 22.0703V22.0703ZM22.0703 1.95312C22.6088 1.95312 23.0469 2.39124 23.0469 2.92969V22.0703C23.0469 22.6088 22.6088 23.0469 22.0703 23.0469H2.92969C2.39124 23.0469 1.95312 22.6088 1.95312 22.0703V2.92969C1.95312 2.39124 2.39124 1.95312 2.92969 1.95312H22.0703Z" fill="black"/>
</g>
<defs>
<clipPath id="clip0">
<rect width="25" height="25" fill="white"/>
</clipPath>
</defs>
</svg>
