<svg width="16" height="16" viewBox="0 0 16 16" fill="none" xmlns="http://www.w3.org/2000/svg">
<path d="M5.00024 13.2188H2.81274V6.15625H5.00024V13.2188ZM5.21851 3.90612C5.21851 3.19898 4.64477 2.625 3.93799 2.625C3.22852 2.625 2.65625 3.19898 2.65625 3.90612C2.65625 4.61352 3.22852 5.1875 3.93799 5.1875C4.64477 5.1875 5.21851 4.61352 5.21851 3.90612ZM13.1875 9.33325C13.1875 7.43738 12.787 6.03125 10.5723 6.03125C9.50803 6.03125 8.79373 6.56346 8.50208 7.11693H8.49997V6.15625H6.375V13.2188H8.49997V9.71213C8.49997 8.79379 8.73376 7.90419 9.87206 7.90419C10.9949 7.90419 11.0312 8.95437 11.0312 9.7705V13.2188H13.1875V9.33325ZM16 14.125V1.875C16 0.841062 15.1589 0 14.125 0H1.875C0.841062 0 0 0.841062 0 1.875V14.125C0 15.1589 0.841062 16 1.875 16H14.125C15.1589 16 16 15.1589 16 14.125ZM14.125 1.25C14.4696 1.25 14.75 1.53039 14.75 1.875V14.125C14.75 14.4696 14.4696 14.75 14.125 14.75H1.875C1.53039 14.75 1.25 14.4696 1.25 14.125V1.875C1.25 1.53039 1.53039 1.25 1.875 1.25H14.125Z" fill="white"/>
</svg>
