<svg width="80" height="80" viewBox="0 0 80 80" fill="none" xmlns="http://www.w3.org/2000/svg">
<path d="M78.6312 38.7833H71.8631C74.6768 32.3954 74.3726 27.2243 73.308 23.7262C71.4829 17.4905 65.3232 10.7224 56.1977 10.7224C53.7643 10.7224 51.3308 11.1787 48.8213 12.0912C44.4867 13.6882 41.597 15.4373 40.3042 16.3498C39.0114 15.4373 36.1977 13.6882 31.7871 12.0912C29.2776 11.1787 26.7681 10.7224 24.4106 10.7224C15.2852 10.7224 9.12548 17.4905 7.30038 23.7262C6.23574 27.4525 5.85551 33.0798 9.42966 40.1521H1.21673C0.532319 40.1521 0 40.6844 0 41.3688C0 42.0532 0.532319 42.5855 1.21673 42.5855H10.8745C11.2548 43.27 11.711 43.9544 12.2433 44.6388C20.1521 56.0456 37.3384 68.4411 40.4563 69.2015V69.2776C40.4563 69.2776 40.5323 69.2776 40.6084 69.2015C40.6844 69.2015 40.7605 69.2015 40.8365 69.2015V69.1255C43.4981 67.8327 60 57.1863 68.6692 44.5627C69.5057 43.422 70.1901 42.2814 70.7985 41.1407H78.7833C79.4677 41.1407 80 40.6084 80 39.9239C80 39.2395 79.3156 38.7833 78.6312 38.7833ZM66.4639 43.27C58.403 55.057 43.5741 64.5627 40.3802 66.616C37.1103 64.5627 22.3574 54.981 14.2205 43.27C14.0684 43.0418 13.9164 42.8137 13.7643 42.5855H24.943C25.3992 42.5855 25.8555 42.3574 26.0837 41.9011L31.1787 31.8631L39.1635 52.3194C39.3156 52.7757 39.8479 53.0798 40.3042 53.0798C40.3042 53.0798 40.3042 53.0798 40.3802 53.0798C40.9125 53.0798 41.3688 52.6996 41.5209 52.1673L48.5171 28.2129L52.2433 40.3042C52.3954 40.7604 52.7757 41.0646 53.2319 41.1407C53.6882 41.2167 54.1445 40.9886 54.4487 40.6084L57.4145 36.2738L59.924 40.5323C60.1521 40.9125 60.5323 41.1407 60.9886 41.1407H67.8327C67.3764 41.9011 66.9202 42.5855 66.4639 43.27ZM69.2015 38.7833H61.7491L58.6312 33.4601C58.403 33.0798 58.0228 32.8517 57.5665 32.8517C57.1103 32.8517 56.73 33.0038 56.5019 33.384L53.9164 37.1863L49.7338 23.5741C49.5818 23.0418 49.0494 22.7376 48.5171 22.6616C47.9848 22.6616 47.4525 23.0418 47.3004 23.5741L40.2281 47.9848L32.5475 28.365C32.3954 27.9087 31.9392 27.6046 31.4829 27.6046C30.9506 27.6046 30.5703 27.8327 30.3422 28.289L24.3346 40.076H12.2433C9.20152 34.5247 8.36502 29.2015 9.73384 24.4106C11.3308 19.0114 16.5779 13.2319 24.4867 13.2319C26.616 13.2319 28.8213 13.6882 31.0266 14.4487C36.5779 16.5019 39.5437 18.8593 39.6198 18.8593C40.076 19.2395 40.6844 19.2395 41.1407 18.8593C41.1407 18.8593 44.1065 16.5019 49.7338 14.4487C51.9392 13.6122 54.1445 13.2319 56.2738 13.2319C64.1065 13.2319 69.4297 19.0114 71.0266 24.4106C72.3194 28.8213 71.635 33.6882 69.2015 38.7833Z" fill="#B41E3C"/>
</svg>
