<svg width="80" height="80" viewBox="0 0 80 80" fill="none" xmlns="http://www.w3.org/2000/svg">
<g clip-path="url(#clip0)">
<path d="M79.866 48.7816L79.878 48.7776L66.7435 20.1192L69.9288 18.5338L68.7368 16.1472L65.6315 17.6938L65.2115 16.7779C64.9045 16.1085 64.1131 15.8147 63.4438 16.1215C63.1535 16.2547 62.9207 16.4875 62.7875 16.7779L62.4128 17.5965C60.1528 16.5469 57.6914 16.0022 55.1996 16.0005H43.9997V13.3339H46.6663V10.6672H44.3743L45.333 6.83127C46.069 3.8858 44.278 0.901322 41.3325 0.165161C38.387 -0.570833 35.4026 1.22015 34.6664 4.16563C34.4477 5.04062 34.4477 5.95611 34.6664 6.83111L35.6251 10.6671H33.3331V13.3337H35.9997V16.0004H24.8065C22.3122 16.0024 19.8482 16.5484 17.5865 17.6003L17.2119 16.7817C16.905 16.1124 16.1135 15.8185 15.4442 16.1254C15.1539 16.2585 14.9211 16.4914 14.7879 16.7817L14.3679 17.6977L11.2626 16.1444L10.0706 18.5337L13.2559 20.1257L0.12135 48.7776C0.0403507 48.9518 -0.000982271 49.1416 1.77208e-05 49.3336C0.00585101 54.4857 4.18115 58.661 9.33327 58.6668H22.6665C27.8186 58.661 31.9939 54.4857 31.9997 49.3336C31.9964 49.1421 31.9509 48.9536 31.8664 48.7816L18.6959 20.0152C20.6103 19.1265 22.6958 18.6665 24.8065 18.6672H35.9997V67.4481L31.4478 72.0001H26.6665C22.9865 72.0044 20.0042 74.9867 19.9999 78.6667C19.9999 79.403 20.5968 80 21.3332 80H58.6662C59.4025 80 59.9995 79.403 59.9995 78.6667C59.9952 74.9867 57.0129 72.0044 53.3329 72.0001H48.5516L43.9997 67.4481V18.6672H55.1996C57.3102 18.6665 59.3957 19.1265 61.3102 20.0152L48.121 48.7776C48.04 48.9518 47.9986 49.1416 47.9996 49.3336C48.0055 54.4857 52.1808 58.661 57.3329 58.6668H70.6661C75.8182 58.661 79.9935 54.4857 79.9994 49.3336C79.9962 49.1421 79.9507 48.9536 79.866 48.7816ZM22.6665 56.0002H9.33327C6.1663 55.9967 3.43749 53.769 2.79999 50.6669H29.1998C28.5624 53.769 25.8335 55.9967 22.6665 56.0002ZM28.5891 48.0003H3.41066L15.6586 21.2792C15.8822 21.3392 16.1176 21.3392 16.3412 21.2792L28.5891 48.0003ZM37.769 3.7553C38.8074 2.52331 40.6478 2.36648 41.8798 3.4048C42.0063 3.51147 42.1237 3.6288 42.2303 3.7553C42.7697 4.44129 42.9602 5.33862 42.7463 6.18461L41.625 10.6672H38.3744L37.253 6.18461C37.0392 5.33862 37.2299 4.44129 37.769 3.7553ZM38.6664 16.0005V13.3339H41.333V16.0005H38.6664ZM41.333 18.6672V66.6668H38.6664V18.6672H41.333V18.6672ZM53.3329 74.6667C55.0276 74.6687 56.5377 75.7364 57.1049 77.3333H22.8945C23.4617 75.7364 24.9718 74.6687 26.6665 74.6667H53.3329ZM44.781 72.0001H35.2184L37.885 69.3334H42.1143L44.781 72.0001ZM63.6555 21.2832C63.8756 21.3607 64.1171 21.3507 64.3301 21.2552L76.5887 48.0003H51.4103L63.6555 21.2832ZM70.6661 56.0002H57.3329C54.1659 55.9967 51.4371 53.769 50.7996 50.6669H77.1994C76.562 53.769 73.8331 55.9967 70.6661 56.0002Z" fill="#B41E3C"/>
</g>
<defs>
<clipPath id="clip0">
<rect width="80" height="80" fill="white"/>
</clipPath>
</defs>
</svg>
