<svg width="80" height="80" viewBox="0 0 80 80" fill="none" xmlns="http://www.w3.org/2000/svg">
<g clip-path="url(#clip0)">
<path d="M75.8345 68.3478H73.7752C72.3464 64.9531 72.3458 61.6408 73.7736 58.2631H75.8345C78.1314 58.2631 80 56.3945 80 54.0975C80 51.8006 78.1314 49.9319 75.8345 49.9319H67.5473C68.6022 48.7269 69.2434 47.1514 69.2434 45.4278V32.3763C69.2434 28.6003 66.1717 25.5285 62.3959 25.5285H59.0261C59.312 24.9585 59.4739 24.3158 59.4739 23.6358C59.4739 21.2972 57.5736 19.3945 55.2377 19.3945H54.0784C53.0439 16.8372 53.0433 14.3394 54.0767 11.7985H55.2377C57.5736 11.7985 59.4739 9.8958 59.4739 7.55721C59.4739 5.22127 57.5736 3.3208 55.2377 3.3208H15.7059C8.93594 3.3208 3.42813 8.82658 3.42813 15.5941C3.42813 18.8669 4.70719 21.9483 7.02937 24.2706C7.49109 24.7324 7.98391 25.151 8.50109 25.5283H7.59359C5.29672 25.5283 3.42813 27.3969 3.42813 29.6939C3.42813 31.991 5.29672 33.8595 7.59359 33.8595H9.65453C11.0823 37.2369 11.0819 40.5494 9.65297 43.9441H7.59359C5.29672 43.9441 3.42813 45.8127 3.42813 48.1097C3.42813 48.9885 3.70234 49.8039 4.16859 50.4766C1.72047 51.5211 0 53.953 0 56.7797V69.8314C0 73.6074 3.06969 76.6791 6.84281 76.6791H75.8344C78.1312 76.6791 79.9998 74.8105 79.9998 72.5135C80 70.2166 78.1314 68.3478 75.8345 68.3478V68.3478ZM75.8345 52.2756C76.8391 52.2756 77.6562 53.093 77.6562 54.0975C77.6562 55.102 76.8391 55.9194 75.8345 55.9194H54.685C54.0377 55.9194 53.5131 56.4441 53.5131 57.0913C53.5131 57.7385 54.0377 58.2631 54.685 58.2631H71.2597C70.8017 59.5494 70.5217 60.8406 70.4159 62.1336C70.4159 62.1336 69.9478 64.4531 71.2622 68.3478H8.67031C8.48656 68.3478 8.33125 68.1925 8.33125 68.0086V58.6024C8.33125 58.4186 8.48656 58.2633 8.67031 58.2633H20.2798L20.2806 62.112C20.2067 63.2642 20.7694 63.7183 21.1148 63.887C21.465 64.0583 22.1844 64.2241 23.0695 63.415C23.0756 63.4094 23.0817 63.4038 23.0877 63.3981L26.3633 60.2739L29.6389 63.3981C29.6448 63.4039 29.6509 63.4095 29.657 63.415C30.1752 63.8886 30.6364 64.0285 31.0006 64.0285C31.2608 64.0285 31.4714 63.957 31.6177 63.885C31.9636 63.7147 32.5255 63.2585 32.4459 62.1089L32.4475 58.2633H48.915C49.5623 58.2633 50.0869 57.7386 50.0869 57.0914C50.0869 56.4442 49.5623 55.9195 48.915 55.9195H32.4483L32.4498 52.2758H75.8345V52.2756ZM13.0128 37.7303C12.9072 36.4374 12.6217 35.1463 12.1641 33.8599H60.5734C60.7573 33.8599 60.9127 34.0152 60.9127 34.1989V43.6052C60.9127 43.7889 60.7573 43.9442 60.5734 43.9442H32.4533L32.4548 40.0738H40.6563C41.3036 40.0738 41.8281 39.5491 41.8281 38.9019C41.8281 38.2547 41.3036 37.73 40.6563 37.73H13.0128V37.7303ZM20.2769 43.9444H12.1614C12.6188 42.6563 12.9047 41.3652 13.0116 40.0739H20.2761L20.2769 43.9444ZM30.1111 40.0741L30.1027 60.6016L27.1719 57.8063C26.7192 57.3744 26.007 57.3744 25.5542 57.8063L22.6239 60.6013L22.6197 40.0739H30.1111V40.0741ZM5.77187 15.5942C5.77187 10.1191 10.2283 5.66471 15.7059 5.66471H55.2377C56.2812 5.66471 57.1302 6.51377 57.1302 7.55736C57.1302 8.60361 56.2811 9.45486 55.2377 9.45486H33.6348C32.9877 9.45486 32.463 9.97955 32.463 10.6267C32.463 11.2739 32.9877 11.7986 33.6348 11.7986H51.5797C50.7525 14.3196 50.7536 16.8628 51.5828 19.3947H15.7059C14.6981 19.3947 13.7439 18.9977 13.0236 18.281C12.3027 17.5563 11.9056 16.6022 11.9056 15.5942C11.9056 13.5013 13.6105 11.7986 15.7059 11.7986H27.8648C28.512 11.7986 29.0367 11.2739 29.0367 10.6267C29.0367 9.97955 28.512 9.45486 27.8648 9.45486H15.7059C12.3181 9.45486 9.56187 12.2089 9.56187 15.5942C9.56187 17.226 10.2013 18.7672 11.3663 19.9381C12.5331 21.0991 14.0742 21.7385 15.7059 21.7385H55.2377C56.2812 21.7385 57.1302 22.5897 57.1302 23.636C57.1302 24.6795 56.2811 25.5286 55.2377 25.5286H15.7059C13.0592 25.5286 10.5664 24.4935 8.68672 22.6136C6.80703 20.7339 5.77187 18.2411 5.77187 15.5942V15.5942ZM7.59359 31.5161C6.58906 31.5161 5.77187 30.6989 5.77187 29.6942C5.77187 28.6897 6.58906 27.8724 7.59359 27.8724H62.3959C64.8794 27.8724 66.8997 29.8928 66.8997 32.3764V45.428C66.8997 47.9116 64.8792 49.932 62.3959 49.932H32.4508L32.4523 46.2883H60.5733C62.0527 46.2883 63.2562 45.0847 63.2562 43.6055V34.1992C63.2562 32.7199 62.0527 31.5164 60.5733 31.5164H7.59359V31.5161ZM7.59359 46.2881H20.2773L20.2781 49.9319H7.59375C6.58922 49.9319 5.77203 49.1145 5.77203 48.11C5.77188 47.1055 6.58906 46.2881 7.59359 46.2881V46.2881ZM75.8345 74.3353H6.84281C4.36203 74.3353 2.34375 72.3149 2.34375 69.8314V56.7797C2.34375 54.2961 4.36203 52.2756 6.84281 52.2756H20.2784L20.2792 55.9194H8.67031C7.19094 55.9194 5.9875 57.123 5.9875 58.6022V68.0085C5.9875 69.4878 7.19109 70.6914 8.67031 70.6914H75.8345C76.8391 70.6914 77.6562 71.5088 77.6562 72.5133C77.6562 73.5178 76.8391 74.3353 75.8345 74.3353Z" fill="#B41E3C"/>
</g>
<defs>
<clipPath id="clip0">
<rect width="80" height="80" fill="white"/>
</clipPath>
</defs>
</svg>
