<?xml version="1.0" standalone="no"?>
<!DOCTYPE svg PUBLIC "-//W3C//DTD SVG 20010904//EN"
 "http://www.w3.org/TR/2001/REC-SVG-20010904/DTD/svg10.dtd">
<svg version="1.0" xmlns="http://www.w3.org/2000/svg"
 width="700.000000pt" height="700.000000pt" viewBox="0 0 700.000000 700.000000"
 preserveAspectRatio="xMidYMid meet">
<metadata>
Created by potrace 1.14, written by Peter Selinger 2001-2017
</metadata>
<g transform="translate(0.000000,700.000000) scale(0.100000,-0.100000)"
fill="#000000" stroke="none">
<path d="M3 4183 c1 -1550 5 -2827 9 -2838 3 -11 9 -40 13 -65 62 -389 317
-782 659 -1012 178 -119 419 -218 596 -244 19 -3 46 -8 60 -12 14 -4 1293 -8
2843 -9 l2817 -3 0 2797 c-1 1560 -5 2816 -9 2838 -5 22 -12 58 -15 80 -33
247 -192 573 -374 767 -22 24 -49 52 -59 63 -39 44 -171 151 -248 200 -192
125 -394 202 -625 239 -83 13 -456 15 -2883 15 l-2787 1 3 -2817z m3665 1272
c5 -6 39 -91 76 -190 38 -99 74 -193 81 -210 7 -16 38 -95 68 -175 58 -152
106 -278 162 -420 19 -47 52 -134 75 -195 23 -60 48 -123 55 -140 7 -16 16
-41 20 -55 4 -14 16 -43 25 -65 10 -22 59 -148 109 -280 50 -132 96 -249 101
-260 5 -11 55 -139 110 -285 199 -518 321 -835 336 -867 8 -17 14 -34 14 -37
0 -3 25 -70 56 -148 30 -79 73 -188 94 -243 21 -55 59 -153 84 -217 25 -65 46
-121 46 -125 0 -6 -563 -10 -591 -4 -3 0 -10 16 -16 34 -6 17 -51 140 -101
272 -49 132 -155 418 -236 635 -81 217 -154 409 -162 427 -8 17 -14 35 -14 41
0 5 -9 34 -21 63 -44 114 -120 317 -294 784 -69 187 -139 374 -155 415 -15 41
-46 124 -68 185 l-40 109 -20 -64 c-10 -36 -62 -180 -115 -320 -52 -140 -118
-318 -147 -395 -29 -77 -147 -394 -262 -705 -116 -311 -222 -597 -237 -636
-14 -39 -91 -246 -170 -460 l-145 -389 -283 0 c-156 0 -283 3 -283 6 0 6 54
150 112 299 16 41 33 86 38 100 5 14 72 189 150 390 78 201 143 370 144 375 2
6 7 19 11 30 24 58 367 952 370 965 5 18 131 346 145 375 8 18 75 195 120 315
9 25 21 54 25 65 8 21 89 231 132 345 13 36 28 74 33 85 5 11 39 99 75 195 36
96 70 184 75 195 4 11 21 54 36 95 15 41 31 80 35 85 10 14 335 13 347 0z"/>
</g>
</svg>
