<svg width="80" height="80" viewBox="0 0 80 80" fill="none" xmlns="http://www.w3.org/2000/svg">
<g clip-path="url(#clip0)">
<path d="M76.8867 64.2968H74.83V24.7218C74.83 21.8357 72.482 19.4875 69.5958 19.4875H54.3856C53.7383 19.4875 53.2137 20.0122 53.2137 20.6594C53.2137 21.3066 53.7383 21.8313 54.3856 21.8313H69.5958C71.1895 21.8313 72.4862 23.128 72.4862 24.7218V64.2968H7.51375V24.7218C7.51375 23.128 8.81047 21.8313 10.4042 21.8313H25.618C26.2653 21.8313 26.7898 21.3066 26.7898 20.6594C26.7898 20.0122 26.2653 19.4875 25.618 19.4875H10.4042C7.51797 19.4875 5.17 21.8357 5.17 24.7218V64.2968H3.11328C1.39656 64.2968 0 65.6935 0 67.4102C0 72.1685 3.87109 76.0397 8.62953 76.0397H71.3706C76.1289 76.0397 80.0002 72.1685 80.0002 67.4102C80 65.6935 78.6034 64.2968 76.8867 64.2968V64.2968ZM28.7031 66.6405H51.2969V67.8185C51.2969 68.468 50.7684 68.9964 50.1189 68.9964H29.8811C29.2316 68.9964 28.7031 68.468 28.7031 67.8185V66.6405ZM71.3705 73.696H8.62953C5.16359 73.696 2.34375 70.8761 2.34375 67.4102C2.34375 66.9858 2.68891 66.6407 3.11328 66.6407H26.3594V67.8186C26.3594 69.7605 27.9392 71.3404 29.8811 71.3404H50.1188C52.0606 71.3404 53.6405 69.7605 53.6405 67.8186V66.6405H76.8866C77.3109 66.6405 77.6561 66.9857 77.6561 67.41C77.6562 70.8761 74.8364 73.696 71.3705 73.696V73.696Z" fill="#B41E3C"/>
<path d="M40.0002 28.8073C43.0907 28.8073 45.6049 26.2931 45.6049 23.2026C45.6049 20.1121 43.0907 17.5979 40.0002 17.5979C36.9097 17.5979 34.3955 20.1121 34.3955 23.2026C34.3955 26.2931 36.9097 28.8073 40.0002 28.8073ZM40.0002 19.9418C41.7983 19.9418 43.2611 21.4046 43.2611 23.2027C43.2611 25.0007 41.7983 26.4637 40.0002 26.4637C38.2021 26.4637 36.7393 25.0009 36.7393 23.2027C36.7393 21.4046 38.2021 19.9418 40.0002 19.9418Z" fill="#B41E3C"/>
<path d="M25.6137 37.6215L27.2645 45.6929C27.5812 47.2407 29.4556 47.8632 30.6351 46.8101L33.3271 44.4065L33.4228 44.8652C33.6501 45.9558 34.5989 46.7555 35.7028 46.809C35.1342 47.8666 34.5978 49.0907 34.2571 50.3929C31.127 50.1543 28.0281 51.4301 25.974 53.983C25.8284 54.1643 25.5615 54.2201 25.3096 54.1223C21.625 52.6919 17.4992 54.9521 16.7598 58.7957H13.0146V27.3323H25.4161C26.0634 27.3323 26.5879 26.8076 26.5879 26.1604C26.5879 25.5132 26.0634 24.9885 25.4161 24.9885H12.9148C11.6775 24.9885 10.6709 25.9951 10.6709 27.2324V58.8957C10.6709 60.133 11.6775 61.1396 12.9148 61.1396H67.085C68.3223 61.1396 69.3289 60.133 69.3289 58.8957V27.2324C69.3289 25.9951 68.3223 24.9885 67.085 24.9885H54.5923C53.945 24.9885 53.4204 25.5132 53.4204 26.1604C53.4204 26.8076 53.945 27.3323 54.5923 27.3323H66.9851V58.796H63.24C62.5012 54.9565 58.3786 52.691 54.6898 54.1227C54.4384 54.2207 54.1712 54.1644 54.0257 53.9833C52.0406 51.5162 48.9826 50.1462 45.7426 50.3932C45.402 49.091 44.8656 47.8669 44.297 46.8093C45.4009 46.7557 46.3496 45.9562 46.577 44.8655L46.6726 44.4068L49.3646 46.8104C50.5415 47.861 52.4179 47.2441 52.7353 45.693L54.3861 37.6216C54.7551 35.8173 54.1956 33.9646 52.8896 32.666L49.7673 29.5618L49.8251 29.2848C51.2881 22.2685 49.6181 15.0443 45.4648 9.44476L42.2296 5.08351C41.119 3.58601 38.8812 3.58554 37.7701 5.08351L34.535 9.44476C30.3825 15.043 28.7114 22.2671 30.1746 29.2848L30.2325 29.5618L27.1101 32.6662C25.804 33.9644 25.2445 35.8171 25.6137 37.6215V37.6215ZM35.8201 44.4707C35.7706 44.4707 35.7273 44.4355 35.7171 44.3871L35.3403 42.5794H44.6596L44.2828 44.3871C44.2726 44.4355 44.2293 44.4707 44.1798 44.4707H35.8201ZM52.1996 55.4524C52.9886 56.433 54.3304 56.7768 55.5382 56.3074C57.6678 55.4807 60.1267 56.6073 60.8268 58.7958H19.1731C19.8707 56.6149 22.3239 55.4774 24.4614 56.3073C25.6703 56.7766 27.0115 56.4329 27.8003 55.4524C30.407 52.2124 35.0767 51.8262 38.1779 54.3698C39.2337 55.2357 40.7661 55.2357 41.8218 54.3698C44.9245 51.8254 49.5939 52.2138 52.1996 55.4524V55.4524ZM40.3354 52.5577C40.144 52.7148 39.8556 52.7146 39.6642 52.5577C38.7395 51.7993 37.6834 51.2255 36.559 50.8546C36.9768 49.3308 37.7232 47.9069 38.409 46.8144H41.5907C42.2764 47.9069 43.0229 49.3308 43.4407 50.8546C42.3165 51.2255 41.2603 51.7993 40.3354 52.5577ZM51.2373 34.3279C51.9817 35.0679 52.3004 36.1237 52.0901 37.1518L50.5423 44.7194L47.2251 41.7576L49.1968 32.2991L51.2373 34.3279ZM39.6525 6.47976C39.8259 6.24601 40.1742 6.24632 40.3473 6.47976L43.5825 10.841C44.0643 11.4905 44.5079 12.1626 44.9132 12.8535C43.3236 13.3198 41.6767 13.5566 39.9998 13.5566C38.3229 13.5566 36.6761 13.3198 35.0864 12.8535C35.4917 12.1626 35.9353 11.4905 36.4171 10.841L39.6525 6.47976ZM33.9922 14.9693C35.9297 15.5866 37.9456 15.9002 40 15.9002C42.0543 15.9002 44.0703 15.5866 46.0078 14.9693C47.9496 19.2677 48.5092 24.1143 47.5309 28.8062L45.1482 40.2355H34.8517L32.469 28.8062C31.4907 24.1143 32.0503 19.2677 33.9922 14.9693V14.9693ZM28.7626 34.3279L30.8031 32.2991L32.7748 41.7576L29.4576 44.7194L27.9098 37.1518C27.6995 36.1237 28.0182 35.0679 28.7626 34.3279V34.3279Z" fill="#B41E3C"/>
</g>
<defs>
<clipPath id="clip0">
<rect width="80" height="80" fill="white"/>
</clipPath>
</defs>
</svg>
