<svg width="80" height="80" viewBox="0 0 80 80" fill="none" xmlns="http://www.w3.org/2000/svg">
<circle cx="40" cy="40" r="40" fill="#B41E3C"/>
<g clip-path="url(#clip0)">
<path d="M58.4434 49.1483H57.415V29.3608C57.415 27.9178 56.241 26.7437 54.7979 26.7437H47.1928C46.8691 26.7437 46.6069 27.0061 46.6069 27.3297C46.6069 27.6532 46.8691 27.9156 47.1928 27.9156H54.7979C55.5948 27.9156 56.2431 28.5639 56.2431 29.3608V49.1483H23.7569V29.3608C23.7569 28.5639 24.4052 27.9156 25.2021 27.9156H32.809C33.1327 27.9156 33.3949 27.6532 33.3949 27.3297C33.3949 27.0061 33.1327 26.7437 32.809 26.7437H25.2021C23.759 26.7437 22.585 27.9178 22.585 29.3608V49.1483H21.5566C20.6983 49.1483 20 49.8467 20 50.705C20 53.0842 21.9355 55.0198 24.3148 55.0198H55.6853C58.0645 55.0198 60.0001 53.0842 60.0001 50.705C60 49.8467 59.3017 49.1483 58.4434 49.1483V49.1483ZM34.3516 50.3202H45.6484V50.9092C45.6484 51.2339 45.3842 51.4982 45.0595 51.4982H34.9405C34.6158 51.4982 34.3516 51.2339 34.3516 50.9092V50.3202ZM55.6852 53.8479H24.3148C22.5818 53.8479 21.1719 52.438 21.1719 50.705C21.1719 50.4928 21.3445 50.3203 21.5566 50.3203H33.1797V50.9093C33.1797 51.8802 33.9696 52.6701 34.9405 52.6701H45.0594C46.0303 52.6701 46.8202 51.8802 46.8202 50.9093V50.3202H58.4433C58.6555 50.3202 58.828 50.4928 58.828 50.705C58.8281 52.438 57.4182 53.8479 55.6852 53.8479V53.8479Z" fill="white"/>
<path d="M39.9996 31.4036C41.5448 31.4036 42.802 30.1465 42.802 28.6013C42.802 27.0561 41.5448 25.799 39.9996 25.799C38.4544 25.799 37.1973 27.0561 37.1973 28.6013C37.1973 30.1465 38.4544 31.4036 39.9996 31.4036ZM39.9996 26.9709C40.8987 26.9709 41.6301 27.7023 41.6301 28.6014C41.6301 29.5004 40.8987 30.2318 39.9996 30.2318C39.1005 30.2318 38.3691 29.5004 38.3691 28.6014C38.3691 27.7023 39.1005 26.9709 39.9996 26.9709Z" fill="white"/>
<path d="M32.8073 35.8107L33.6327 39.8464C33.7911 40.6203 34.7283 40.9316 35.318 40.405L36.6641 39.2032L36.7119 39.4326C36.8255 39.9779 37.2999 40.3778 37.8519 40.4045C37.5676 40.9333 37.2994 41.5453 37.1291 42.1964C35.564 42.0771 34.0145 42.715 32.9875 43.9915C32.9147 44.0821 32.7812 44.11 32.6553 44.0611C30.813 43.346 28.7501 44.476 28.3804 46.3978H26.5078V30.6661H32.7085C33.0322 30.6661 33.2945 30.4038 33.2945 30.0802C33.2945 29.7566 33.0322 29.4943 32.7085 29.4943H26.4579C25.8392 29.4943 25.3359 29.9975 25.3359 30.6162V46.4478C25.3359 47.0665 25.8392 47.5698 26.4579 47.5698H53.543C54.1616 47.5698 54.6649 47.0665 54.6649 46.4478V30.6162C54.6649 29.9975 54.1616 29.4943 53.543 29.4943H47.2966C46.973 29.4943 46.7107 29.7566 46.7107 30.0802C46.7107 30.4038 46.973 30.6661 47.2966 30.6661H53.493V46.398H51.6205C51.2511 44.4782 49.1898 43.3455 47.3454 44.0614C47.2197 44.1103 47.0861 44.0822 47.0134 43.9917C46.0208 42.7581 44.4918 42.0731 42.8718 42.1966C42.7015 41.5455 42.4333 40.9335 42.149 40.4046C42.7009 40.3778 43.1753 39.9781 43.289 39.4328L43.3368 39.2034L44.6828 40.4052C45.2712 40.9305 46.2095 40.6221 46.3681 39.8465L47.1935 35.8108C47.378 34.9086 47.0983 33.9823 46.4453 33.333L44.8841 31.7809L44.913 31.6424C45.6445 28.1343 44.8095 24.5221 42.7329 21.7224L41.1153 19.5418C40.56 18.793 39.4411 18.7928 38.8855 19.5418L37.268 21.7224C35.1917 24.5215 34.3562 28.1336 35.0878 31.6424L35.1167 31.7809L33.5555 33.3331C32.9025 33.9822 32.6227 34.9086 32.8073 35.8107V35.8107ZM37.9105 39.2353C37.8858 39.2353 37.8641 39.2178 37.8591 39.1935L37.6706 38.2897H42.3303L42.1419 39.1935C42.1368 39.2178 42.1152 39.2353 42.0904 39.2353H37.9105ZM46.1003 44.7262C46.4948 45.2165 47.1657 45.3884 47.7696 45.1537C48.8344 44.7403 50.0638 45.3036 50.4139 46.3979H29.587C29.9359 45.3075 31.1624 44.7387 32.2312 45.1536C32.8356 45.3883 33.5062 45.2164 33.9006 44.7262C35.204 43.1062 37.5388 42.9131 39.0895 44.1849C39.6173 44.6178 40.3835 44.6178 40.9114 44.1849C42.4627 42.9127 44.7974 43.1069 46.1003 44.7262V44.7262ZM40.1682 43.2789C40.0725 43.3574 39.9283 43.3573 39.8326 43.2789C39.3702 42.8996 38.8422 42.6128 38.28 42.4273C38.4889 41.6654 38.8621 40.9535 39.205 40.4072H40.7959C41.1387 40.9535 41.512 41.6654 41.7209 42.4273C41.1587 42.6128 40.6306 42.8996 40.1682 43.2789ZM45.6191 34.1639C45.9913 34.5339 46.1507 35.0618 46.0455 35.5759L45.2716 39.3597L43.613 37.8788L44.5989 33.1496L45.6191 34.1639ZM39.8267 20.2399C39.9134 20.123 40.0876 20.1232 40.1741 20.2399L41.7917 22.4205C42.0327 22.7453 42.2545 23.0813 42.4571 23.4268C41.6623 23.6599 40.8388 23.7783 40.0004 23.7783C39.162 23.7783 38.3385 23.6599 37.5437 23.4268C37.7463 23.0813 37.9681 22.7453 38.2091 22.4205L39.8267 20.2399ZM36.9966 24.4846C37.9653 24.7933 38.9733 24.9501 40.0005 24.9501C41.0277 24.9501 42.0356 24.7933 43.0044 24.4846C43.9753 26.6339 44.2551 29.0571 43.7659 31.4031L42.5746 37.1178H37.4263L36.235 31.4031C35.7459 29.0571 36.0256 26.6339 36.9966 24.4846V24.4846ZM34.3818 34.1639L35.402 33.1496L36.3879 37.8788L34.7293 39.3597L33.9554 35.5759C33.8502 35.0618 34.0096 34.5339 34.3818 34.1639V34.1639Z" fill="white"/>
</g>
<defs>
<clipPath id="clip0">
<rect width="40" height="40" fill="white" transform="translate(20 17)"/>
</clipPath>
</defs>
</svg>
