<svg width="80" height="80" viewBox="0 0 80 80" fill="none" xmlns="http://www.w3.org/2000/svg">
<path d="M74.6004 76.3389V78.4686C74.6004 79.3139 73.9144 79.9999 73.0691 79.9999H6.93164C6.08633 79.9999 5.40039 79.3139 5.40039 78.4686V76.3389C5.40039 71.428 8.8832 67.2061 13.7066 66.2718L17.2926 65.4811L25.2832 63.7218L32.9238 62.0389H46.9269L51.2723 62.9889L54.6519 63.728L62.641 65.4733L66.2941 66.2718C71.1176 67.2061 74.6004 71.428 74.6004 76.3389V76.3389Z" fill="#3EB1FF"/>
<path d="M74.601 76.339V78.4687C74.601 79.314 73.915 80 73.0697 80H69.1635C70.0088 80 70.6947 79.314 70.6947 78.4687V76.339C70.6947 71.5437 67.2791 66.5703 62.6416 65.4734L66.2947 66.2718C71.1182 67.2062 74.601 71.4281 74.601 76.339V76.339Z" fill="#4390FF"/>
<path d="M54.6521 63.7281V80H51.2725V62.989L54.6521 63.7281Z" fill="#4390FF"/>
<path d="M17.292 73.9077H62.6404V79.9999H17.292V73.9077Z" fill="#668FA3"/>
<path d="M23.4026 38.1118C21.1281 38.1118 19.2763 35.8748 19.2484 33.0932C19.2199 30.2629 21.0882 27.95 23.4026 27.95L24.9651 33.0309L23.4026 38.1118Z" fill="#FFAB8A"/>
<path d="M56.6064 38.1118C58.881 38.1118 60.7327 35.8748 60.7607 33.0932C60.7891 30.2629 58.9208 27.95 56.6064 27.95L55.0439 33.0309L56.6064 38.1118Z" fill="#FFAB8A"/>
<path d="M46.8025 61.7889L46.9275 62.0389V62.3171C46.9275 66.178 43.7869 69.3171 39.926 69.3171C38.0916 69.3171 36.3572 68.6139 35.0432 67.3343C33.6775 66.0046 32.9244 64.2233 32.9244 62.3171V62.0389L33.051 61.7889C33.39 61.1171 33.6135 60.3983 33.7166 59.653C33.7463 59.4343 33.765 59.2155 33.7744 58.9968C33.8088 58.1061 33.6682 57.2108 33.3604 56.3733L32.415 53.8124H47.4369L46.4932 56.3733C46.1775 57.2296 46.0385 58.1436 46.0822 59.053C46.0916 59.253 46.1088 59.453 46.1369 59.6514C46.2385 60.3968 46.4635 61.1171 46.8025 61.7889V61.7889Z" fill="#FFD9C0"/>
<path d="M46.4932 56.3733C46.1775 57.2296 46.0385 58.1436 46.0822 59.053C44.2963 60.2718 42.1666 60.9343 39.9963 60.9343H39.9478C37.74 60.9343 35.5775 60.2514 33.7744 58.9968C33.8088 58.1061 33.6682 57.2108 33.3604 56.3733L32.415 53.8124H47.4369L46.4932 56.3733Z" fill="#FFBCA1"/>
<path d="M56.9488 40.4109C56.9488 44.4078 53.6723 49.1234 47.2098 54.4343C47.2082 54.4359 47.2082 54.4359 47.2066 54.4374C47.0738 54.5468 46.9379 54.6562 46.802 54.7671C44.8832 56.3265 42.466 57.1843 39.9957 57.1843H39.9473C37.4691 57.1843 35.0488 56.325 33.127 54.7609C26.3988 49.3187 22.9863 44.489 22.9863 40.4109C22.9863 39.9578 23.0035 39.5281 23.0395 39.1328C23.202 37.4749 23.2504 32.2015 23.1535 26.864C23.1504 26.7578 23.191 26.6578 23.2645 26.5828C23.3379 26.5078 23.4379 26.4656 23.5426 26.4656H23.5441L53.6035 26.4718H56.4348C56.5395 26.4718 56.6395 26.514 56.7129 26.5875C56.7863 26.6625 56.827 26.764 56.8254 26.8687C56.7442 31.3796 56.7145 37.2937 56.8957 39.1171C56.9301 39.5468 56.9488 39.9796 56.9488 40.4109Z" fill="#FFD9C0"/>
<path d="M56.949 40.4109C56.949 44.4077 53.6725 49.1234 47.21 54.4343C51.6037 49.4593 54.0303 44.0046 54.0303 40.4109C54.0303 39.9796 54.0146 39.5468 53.985 39.1171C53.8365 37.2937 53.8615 31.3796 53.9271 26.8687C53.9287 26.764 53.8959 26.6624 53.835 26.5874C53.774 26.514 53.6912 26.4718 53.6037 26.4718H56.435C56.5396 26.4718 56.6396 26.514 56.7131 26.5874C56.7865 26.6624 56.8271 26.764 56.8256 26.8687C56.7443 31.3796 56.7146 37.2937 56.8959 39.1171C56.9303 39.5468 56.949 39.9796 56.949 40.4109V40.4109Z" fill="#FFBCA1"/>
<path d="M25.2826 63.7218V79.9999H17.292V65.4812L25.2826 63.7218Z" fill="#668FA3"/>
<path d="M62.6404 65.4733V79.9999H54.6514V63.728L59.2607 64.7343L62.6404 65.4733Z" fill="#668FA3"/>
<path d="M44.4183 43.1374C43.7929 42.9701 43.1505 43.341 42.983 43.9662C42.614 45.3448 41.3568 46.3076 39.926 46.3076C38.4961 46.3076 37.2397 45.3448 36.8705 43.9662C36.703 43.341 36.0601 42.9701 35.4354 43.1374C34.8102 43.3048 34.4391 43.9474 34.6066 44.5726C35.2497 46.9742 37.4372 48.6513 39.926 48.6513C42.4158 48.6513 44.604 46.9742 45.2471 44.5726C45.4146 43.9474 45.0435 43.3048 44.4183 43.1374V43.1374Z" fill="#FFAB8A"/>
<path d="M62.6414 65.4733V79.9999H59.2617V64.7343L62.6414 65.4733Z" fill="#4C7889"/>
<path d="M17.292 73.9077H25.2826V79.9999H17.292V73.9077Z" fill="#D4EFFF"/>
<path d="M54.6523 73.9077H62.6414V79.9999H54.6523V73.9077Z" fill="#D4EFFF"/>
<path d="M51.2725 73.9077H54.6521V79.9999H51.2725V73.9077Z" fill="#4C7889"/>
<path d="M59.2617 73.9077H62.6414V79.9999H59.2617V73.9077Z" fill="#B7D4E2"/>
<path d="M59.616 18.339V24.4421C59.616 25.0906 59.0926 25.614 58.4441 25.614H21.4863C20.8395 25.614 20.3145 25.0906 20.3145 24.4421V18.339C20.3145 9.65933 27.377 2.59839 36.0582 2.59839H43.8723C52.5535 2.59839 59.616 9.65933 59.616 18.339Z" fill="#FFC73B"/>
<path d="M59.6158 18.339V24.4421C59.6158 25.0906 59.0924 25.614 58.4439 25.614H55.458C55.9736 25.614 56.3908 25.0906 56.3908 24.4421V18.339C56.3908 9.65933 50.7752 2.59839 43.8721 2.59839C52.5533 2.59839 59.6158 9.65933 59.6158 18.339Z" fill="#FFA73E"/>
<path d="M59.616 18.3391V24.4422C59.616 25.0907 59.0926 25.6141 58.4441 25.6141H21.4863C20.8395 25.6141 20.3145 25.0907 20.3145 24.4422V18.3391H59.616Z" fill="#FFA73E"/>
<path d="M56.3908 18.3391H59.6158V24.4422C59.6158 25.0907 59.0924 25.6141 58.4439 25.6141H55.458C55.9736 25.6141 56.3908 25.0907 56.3908 24.4422V18.3391Z" fill="#FF8440"/>
<path d="M43.8303 1.17188V24.4422C43.8303 25.0906 43.3068 25.6141 42.6584 25.6141H37.5146C36.8678 25.6141 36.3428 25.0906 36.3428 24.4422V1.17188C36.3428 0.525 36.8678 0 37.5146 0H42.6584C43.3068 0 43.8303 0.525 43.8303 1.17188Z" fill="#FFA73E"/>
<path d="M43.8303 18.3391V24.4422C43.8303 25.0907 43.3068 25.6141 42.6584 25.6141H37.5146C36.8678 25.6141 36.3428 25.0907 36.3428 24.4422V18.3391H43.8303Z" fill="#FF8440"/>
<path d="M64.2945 24.4423V26.5219C64.2945 28.8954 62.3633 30.8266 59.9883 30.8266H20.0133C17.6398 30.8266 15.707 28.8954 15.707 26.5219V24.4423C15.707 23.7954 16.232 23.2704 16.8789 23.2704H63.1227C63.7695 23.2704 64.2945 23.7954 64.2945 24.4423Z" fill="#FFC73B"/>
<path d="M64.2941 24.4423V26.5219C64.2941 28.8954 62.3629 30.8266 59.9879 30.8266H56.4551C58.8332 30.8266 60.7613 28.8985 60.7613 26.5219V24.4423C60.7613 23.7954 60.2363 23.2704 59.5895 23.2704H63.1223C63.7691 23.2704 64.2941 23.7954 64.2941 24.4423Z" fill="#FFA73E"/>
</svg>
