<svg width="25" height="25" viewBox="0 0 25 25" fill="none" xmlns="http://www.w3.org/2000/svg">
<path d="M16.221 13.9379C16.1766 13.8662 16.0613 13.8218 15.8879 13.7355C15.7137 13.6508 14.8557 13.2315 14.6968 13.1734C14.6274 13.1484 14.5661 13.1283 14.5097 13.1283C14.4355 13.1283 14.3694 13.1621 14.304 13.2597C14.1879 13.4331 13.8532 13.8218 13.7524 13.9379C13.6952 14.0041 13.6363 14.0371 13.5653 14.0371C13.5121 14.0371 13.45 14.0186 13.3758 13.9807C13.2 13.896 12.6387 13.7121 11.9734 13.1242C11.4557 12.6654 11.1057 12.0992 11.0032 11.9258C10.9016 11.7541 10.9928 11.6597 11.0807 11.5742C11.1589 11.4944 11.254 11.371 11.3428 11.2702C11.4299 11.1694 11.4589 11.0976 11.5161 10.9823C11.5734 10.867 11.5452 10.7654 11.5008 10.6791C11.4581 10.5928 11.1097 9.74197 10.9629 9.39519C10.8549 9.13713 10.746 9.10406 10.6557 9.10406C10.625 9.10406 10.596 9.1081 10.5702 9.1081C10.4702 9.1081 10.3549 9.09277 10.2371 9.09277C10.121 9.09277 9.93308 9.13632 9.77259 9.31052C9.61372 9.48229 9.16211 9.90084 9.16211 10.7516C9.16211 11.6033 9.7863 12.4242 9.87501 12.5395C9.9613 12.6557 11.0807 14.4581 12.8516 15.1508C13.8782 15.5525 14.3105 15.6436 14.554 15.6436C14.7315 15.6436 14.8089 15.5952 14.9436 15.5831C15.2621 15.5549 15.9742 15.1637 16.1202 14.7605C16.2653 14.3573 16.2653 14.0097 16.221 13.9379Z" fill="black"/>
<path d="M18.2935 0H6.70645C3.07097 0 0 3.07177 0 6.70645V18.2927C0 21.9282 3.07097 25 6.70645 25H18.2935C21.9282 25 25 21.9282 25 18.2919V6.70645C25 3.07177 21.929 0 18.2935 0ZM23.3871 18.2919C23.3871 21.0532 21.0548 23.3863 18.2935 23.3863H6.70645C3.94597 23.3863 1.6129 21.054 1.6129 18.2919V6.70645C1.6129 3.94597 3.94597 1.6129 6.70645 1.6129H18.2935C21.054 1.6129 23.3871 3.94516 23.3871 6.70645V18.2919Z" fill="black"/>
<path d="M12.6311 4.45117C8.26662 4.45117 4.71582 7.97779 4.71582 12.3133C4.71582 13.6205 5.04082 14.902 5.66017 16.0415L4.49485 19.4818C4.39727 19.7697 4.46985 20.0875 4.68275 20.3052C4.83678 20.4633 5.04566 20.5471 5.25856 20.5471C5.34001 20.5471 5.42227 20.535 5.50291 20.5092L9.11985 19.3608C10.2045 19.8931 11.411 20.1738 12.6311 20.1738C16.9965 20.1738 20.5481 16.6479 20.5481 12.3133C20.5481 7.97779 16.9965 4.45117 12.6311 4.45117ZM12.6295 18.5617C11.5618 18.5617 10.5078 18.2931 9.58195 17.7842C9.46259 17.7189 9.32872 17.685 9.19404 17.685C9.11259 17.685 9.03033 17.6971 8.94888 17.7229L6.53195 18.4899L7.30291 16.2157C7.37953 15.9899 7.35211 15.7407 7.22791 15.5367C6.6384 14.5689 6.32711 13.4544 6.32711 12.3141C6.32711 8.86891 9.15453 6.06488 12.6295 6.06488C16.1053 6.06488 18.9336 8.86891 18.9336 12.3141C18.9336 15.7584 16.1061 18.5617 12.6295 18.5617Z" fill="black"/>
</svg>
